<?xml version="1.0" encoding="utf-8"?>
<!-- Generator: Adobe Illustrator 16.0.0, SVG Export Plug-In . SVG Version: 6.00 Build 0)  -->
<!DOCTYPE svg PUBLIC "-//W3C//DTD SVG 1.1//EN" "http://www.w3.org/Graphics/SVG/1.1/DTD/svg11.dtd">
<svg version="1.1" id="圖層_1" xmlns="http://www.w3.org/2000/svg" xmlns:xlink="http://www.w3.org/1999/xlink" x="0px" y="0px"
	 width="460px" height="380px" viewBox="0 0 460 380" enable-background="new 0 0 460 380" xml:space="preserve">
<g>
	<path fill="#53C2C8" d="M172.504,253.697h-13.112v23.048h-31.763v-23.047H80.148v-23.619l49.517-72.402h29.727v71.994h13.112
		V253.697L172.504,253.697z M127.629,229.671v-13.846c0-2.604,0.094-6.119,0.285-10.548c0.189-4.424,0.338-6.743,0.448-6.963h-0.896
		c-1.847,4.183-3.937,8.093-6.271,11.729l-13.194,19.627H127.629L127.629,229.671z"/>
	<path fill="#53C2C8" d="M266.895,217.374c0,21.065-3.529,36.5-10.586,46.301c-7.06,9.802-17.865,14.699-32.415,14.699
		c-14.226,0-24.949-5.115-32.169-15.353c-7.222-10.231-10.832-25.451-10.832-45.647c0-21.176,3.528-36.702,10.587-46.585
		c7.057-9.881,17.863-14.822,32.414-14.822c14.17,0,24.879,5.145,32.129,15.434C263.271,181.689,266.895,197.014,266.895,217.374z
		 M212.899,217.374c0,13.467,0.841,22.724,2.524,27.771c1.683,5.049,4.507,7.574,8.47,7.574c4.018,0,6.854-2.605,8.511-7.818
		c1.656-5.213,2.482-14.387,2.482-27.526c0-13.192-0.843-22.438-2.523-27.732c-1.684-5.293-4.508-7.939-8.47-7.939
		c-3.963,0-6.787,2.553-8.47,7.654C213.74,194.462,212.899,203.8,212.899,217.374z"/>
	<path fill="#53C2C8" d="M367.964,253.697h-13.11v23.048H323.09v-23.047h-47.48v-23.619l49.518-72.402h29.727v71.994h13.111
		L367.964,253.697L367.964,253.697z M323.09,229.671v-13.846c0-2.604,0.094-6.119,0.285-10.548c0.189-4.424,0.338-6.743,0.448-6.963
		h-0.896c-1.847,4.183-3.938,8.093-6.271,11.729l-13.193,19.627H323.09L323.09,229.671z"/>
</g>
<g>
	
		<line fill="none" stroke="#000000" stroke-width="2.1628" stroke-linecap="round" stroke-linejoin="round" stroke-miterlimit="10" x1="32.425" y1="184.097" x2="80.562" y2="184.097"/>
	
		<line fill="none" stroke="#000000" stroke-width="2.1628" stroke-linecap="round" stroke-linejoin="round" stroke-miterlimit="10" x1="92.116" y1="184.097" x2="102.392" y2="184.097"/>
	
		<line fill="none" stroke="#000000" stroke-width="2.1628" stroke-linecap="round" stroke-linejoin="round" stroke-miterlimit="10" x1="23.708" y1="170.548" x2="109.883" y2="170.548"/>
	
		<line fill="none" stroke="#000000" stroke-width="2.1628" stroke-linecap="round" stroke-linejoin="round" stroke-miterlimit="10" x1="16.614" y1="170.548" x2="9.521" y2="170.548"/>
	
		<line fill="none" stroke="#000000" stroke-width="2.1628" stroke-linecap="round" stroke-linejoin="round" stroke-miterlimit="10" x1="23.708" y1="157.677" x2="52.318" y2="157.677"/>
	
		<line fill="none" stroke="#000000" stroke-width="2.1628" stroke-linecap="round" stroke-linejoin="round" stroke-miterlimit="10" x1="59.978" y1="157.677" x2="120.063" y2="157.677"/>
</g>
<g>
	
		<line fill="none" stroke="#000000" stroke-width="2.1628" stroke-linecap="round" stroke-linejoin="round" stroke-miterlimit="10" x1="372.684" y1="291.583" x2="424.195" y2="291.583"/>
	
		<line fill="none" stroke="#000000" stroke-width="2.1628" stroke-linecap="round" stroke-linejoin="round" stroke-miterlimit="10" x1="432.574" y1="291.583" x2="440.024" y2="291.583"/>
	
		<line fill="none" stroke="#000000" stroke-width="2.1628" stroke-linecap="round" stroke-linejoin="round" stroke-miterlimit="10" x1="382.971" y1="278.036" x2="450.479" y2="278.036"/>
	
		<line fill="none" stroke="#000000" stroke-width="2.1628" stroke-linecap="round" stroke-linejoin="round" stroke-miterlimit="10" x1="377.827" y1="278.036" x2="372.684" y2="278.036"/>
	
		<line fill="none" stroke="#000000" stroke-width="2.1628" stroke-linecap="round" stroke-linejoin="round" stroke-miterlimit="10" x1="372.684" y1="265.165" x2="403.716" y2="265.165"/>
	
		<line fill="none" stroke="#000000" stroke-width="2.1628" stroke-linecap="round" stroke-linejoin="round" stroke-miterlimit="10" x1="409.271" y1="265.165" x2="432.574" y2="265.165"/>
</g>
<g>
	<path fill="none" stroke="#000000" stroke-width="3.2675" stroke-miterlimit="10" d="M178.668,253.243h-13.112v23.047h-31.763
		v-23.047h-47.48v-23.619l49.517-72.402h29.727v71.994h13.112L178.668,253.243L178.668,253.243z M133.794,229.216V215.37
		c0-2.604,0.094-6.119,0.285-10.547c0.189-4.425,0.338-6.744,0.448-6.964h-0.896c-1.847,4.183-3.937,8.093-6.271,11.729
		l-13.194,19.627H133.794z"/>
	<path fill="none" stroke="#000000" stroke-width="3.2675" stroke-miterlimit="10" d="M273.061,216.919
		c0,21.065-3.531,36.5-10.588,46.302c-7.06,9.801-17.863,14.698-32.414,14.698c-14.226,0-24.95-5.114-32.17-15.353
		c-7.222-10.231-10.832-25.45-10.832-45.647c0-21.176,3.528-36.702,10.587-46.585c7.057-9.881,17.862-14.822,32.414-14.822
		c14.17,0,24.879,5.145,32.127,15.433C269.436,181.235,273.061,196.559,273.061,216.919z M219.063,216.919
		c0,13.467,0.842,22.724,2.525,27.771c1.682,5.049,4.506,7.574,8.47,7.574c4.018,0,6.853-2.604,8.51-7.818
		c1.656-5.211,2.482-14.387,2.482-27.526c0-13.192-0.842-22.438-2.523-27.732c-1.684-5.293-4.508-7.939-8.469-7.939
		c-3.964,0-6.788,2.553-8.47,7.655C219.905,194.007,219.063,203.345,219.063,216.919z"/>
	<path fill="none" stroke="#000000" stroke-width="3.2675" stroke-miterlimit="10" d="M374.129,253.243h-13.111v23.047h-31.763
		v-23.047h-47.481v-23.619l49.518-72.402h29.727v71.994h13.112L374.129,253.243L374.129,253.243z M329.255,229.216V215.37
		c0-2.604,0.095-6.119,0.285-10.547c0.188-4.425,0.338-6.744,0.446-6.964h-0.896c-1.847,4.183-3.938,8.093-6.271,11.729
		l-13.193,19.627H329.255z"/>
</g>
<g>
	<path d="M162.556,328.46v-26.582h17.776v7.209h-8.407v2.562h7.626v6.809h-7.626v2.797h8.625v7.207L162.556,328.46L162.556,328.46z"
		/>
	<path d="M184.417,328.46v-26.582h12.02c3.498,0,6.161,0.771,7.989,2.307c1.84,1.55,2.76,3.767,2.76,6.646
		c0,1.889-0.461,3.438-1.38,4.647c-0.944,1.261-2.197,1.98-3.758,2.162l7.1,10.82h-10.713l-4.648-8.77v8.77H184.417z
		 M193.786,308.724v5.193h1.489c0.932,0,1.64-0.225,2.125-0.672c0.472-0.424,0.708-1.053,0.708-1.889
		c0-0.849-0.236-1.509-0.708-1.979c-0.484-0.436-1.192-0.654-2.125-0.654L193.786,308.724L193.786,308.724z"/>
	<path d="M211.035,328.46v-26.582h12.021c3.498,0,6.161,0.771,7.988,2.307c1.84,1.55,2.761,3.767,2.761,6.646
		c0,1.889-0.461,3.438-1.381,4.647c-0.943,1.261-2.196,1.98-3.758,2.162l7.1,10.82h-10.712l-4.648-8.77v8.77H211.035z
		 M220.404,308.724v5.193h1.489c0.932,0,1.64-0.225,2.124-0.672c0.472-0.424,0.708-1.053,0.708-1.889
		c0-0.849-0.236-1.509-0.708-1.979c-0.484-0.436-1.192-0.654-2.124-0.654L220.404,308.724L220.404,308.724z"/>
	<path d="M265.145,315.224c0,1.961-0.353,3.771-1.055,5.431c-0.726,1.719-1.73,3.219-3.014,4.502
		c-1.309,1.271-2.84,2.264-4.594,2.979c-1.756,0.689-3.607,1.035-5.557,1.035c-1.974,0-3.832-0.346-5.574-1.035
		c-1.694-0.688-3.231-1.694-4.611-3.014c-1.332-1.344-2.336-2.82-3.014-4.432c-0.666-1.658-1-3.479-1-5.466
		c0-1.983,0.334-3.807,1-5.465c0.701-1.646,1.705-3.135,3.014-4.467c1.33-1.295,2.855-2.299,4.574-3.015
		c1.731-0.666,3.603-0.998,5.611-0.998c1.984,0,3.85,0.332,5.592,0.998c1.731,0.701,3.27,1.708,4.612,3.015
		c1.282,1.307,2.281,2.797,2.995,4.467C264.805,311.44,265.145,313.263,265.145,315.224z M250.927,320.235
		c1.343,0,2.427-0.453,3.25-1.361c0.812-0.932,1.216-2.148,1.216-3.65c0-1.536-0.404-2.766-1.216-3.686
		c-0.836-0.92-1.919-1.381-3.25-1.381s-2.422,0.461-3.269,1.381c-0.813,0.92-1.217,2.147-1.217,3.686c0,1.502,0.404,2.72,1.217,3.65
		C248.493,319.782,249.583,320.235,250.927,320.235z"/>
	<path d="M269.156,328.46v-26.582h12.021c3.498,0,6.161,0.771,7.988,2.307c1.84,1.55,2.761,3.767,2.761,6.646
		c0,1.889-0.461,3.438-1.381,4.647c-0.943,1.261-2.195,1.98-3.758,2.162l7.1,10.82h-10.713l-4.648-8.77v8.77H269.156z
		 M278.525,308.724v5.193h1.488c0.932,0,1.641-0.225,2.125-0.672c0.471-0.424,0.707-1.053,0.707-1.889
		c0-0.849-0.236-1.509-0.707-1.979c-0.484-0.436-1.193-0.654-2.125-0.654L278.525,308.724L278.525,308.724z"/>
</g>
<g>
	
		<line fill="none" stroke="#000000" stroke-width="2.1628" stroke-linecap="round" stroke-linejoin="round" stroke-miterlimit="10" x1="395.164" y1="181.16" x2="395.164" y2="170.122"/>
	
		<line fill="none" stroke="#000000" stroke-width="2.1628" stroke-linecap="round" stroke-linejoin="round" stroke-miterlimit="10" x1="387.458" y1="184.353" x2="379.652" y2="176.546"/>
	
		<line fill="none" stroke="#000000" stroke-width="2.1628" stroke-linecap="round" stroke-linejoin="round" stroke-miterlimit="10" x1="384.268" y1="192.059" x2="373.229" y2="192.059"/>
	
		<line fill="none" stroke="#000000" stroke-width="2.1628" stroke-linecap="round" stroke-linejoin="round" stroke-miterlimit="10" x1="387.458" y1="199.764" x2="379.652" y2="207.568"/>
	
		<line fill="none" stroke="#000000" stroke-width="2.1628" stroke-linecap="round" stroke-linejoin="round" stroke-miterlimit="10" x1="395.164" y1="202.954" x2="395.164" y2="213.993"/>
	
		<line fill="none" stroke="#000000" stroke-width="2.1628" stroke-linecap="round" stroke-linejoin="round" stroke-miterlimit="10" x1="402.87" y1="199.764" x2="410.676" y2="207.568"/>
	
		<line fill="none" stroke="#000000" stroke-width="2.1628" stroke-linecap="round" stroke-linejoin="round" stroke-miterlimit="10" x1="406.063" y1="192.059" x2="417.102" y2="192.059"/>
	
		<line fill="none" stroke="#000000" stroke-width="2.1628" stroke-linecap="round" stroke-linejoin="round" stroke-miterlimit="10" x1="402.87" y1="184.353" x2="410.676" y2="176.546"/>
</g>
<g>
	
		<line fill="none" stroke="#000000" stroke-width="2.1628" stroke-linecap="round" stroke-linejoin="round" stroke-miterlimit="10" x1="48.936" y1="236.126" x2="48.936" y2="228.146"/>
	
		<line fill="none" stroke="#000000" stroke-width="2.1628" stroke-linecap="round" stroke-linejoin="round" stroke-miterlimit="10" x1="43.366" y1="238.436" x2="37.724" y2="232.792"/>
	
		<line fill="none" stroke="#000000" stroke-width="2.1628" stroke-linecap="round" stroke-linejoin="round" stroke-miterlimit="10" x1="41.059" y1="244.003" x2="33.08" y2="244.003"/>
	
		<line fill="none" stroke="#000000" stroke-width="2.1628" stroke-linecap="round" stroke-linejoin="round" stroke-miterlimit="10" x1="43.366" y1="249.572" x2="37.724" y2="255.216"/>
	
		<line fill="none" stroke="#000000" stroke-width="2.1628" stroke-linecap="round" stroke-linejoin="round" stroke-miterlimit="10" x1="48.936" y1="251.88" x2="48.936" y2="259.859"/>
	
		<line fill="none" stroke="#000000" stroke-width="2.1628" stroke-linecap="round" stroke-linejoin="round" stroke-miterlimit="10" x1="54.506" y1="249.572" x2="60.148" y2="255.216"/>
	
		<line fill="none" stroke="#000000" stroke-width="2.1628" stroke-linecap="round" stroke-linejoin="round" stroke-miterlimit="10" x1="56.813" y1="244.003" x2="64.792" y2="244.003"/>
	
		<line fill="none" stroke="#000000" stroke-width="2.1628" stroke-linecap="round" stroke-linejoin="round" stroke-miterlimit="10" x1="54.506" y1="238.436" x2="60.148" y2="232.792"/>
</g>
<g>
	
		<line fill="none" stroke="#000000" stroke-width="2.1628" stroke-linecap="round" stroke-linejoin="round" stroke-miterlimit="10" x1="264.857" y1="71.313" x2="264.857" y2="63.334"/>
	
		<line fill="none" stroke="#000000" stroke-width="2.1628" stroke-linecap="round" stroke-linejoin="round" stroke-miterlimit="10" x1="259.288" y1="73.621" x2="253.646" y2="67.979"/>
	
		<line fill="none" stroke="#000000" stroke-width="2.1628" stroke-linecap="round" stroke-linejoin="round" stroke-miterlimit="10" x1="256.98" y1="79.191" x2="249.001" y2="79.191"/>
	
		<line fill="none" stroke="#000000" stroke-width="2.1628" stroke-linecap="round" stroke-linejoin="round" stroke-miterlimit="10" x1="259.288" y1="84.761" x2="253.646" y2="90.403"/>
	
		<line fill="none" stroke="#000000" stroke-width="2.1628" stroke-linecap="round" stroke-linejoin="round" stroke-miterlimit="10" x1="264.857" y1="87.068" x2="264.857" y2="95.047"/>
	
		<line fill="none" stroke="#000000" stroke-width="2.1628" stroke-linecap="round" stroke-linejoin="round" stroke-miterlimit="10" x1="270.428" y1="84.761" x2="276.068" y2="90.403"/>
	
		<line fill="none" stroke="#000000" stroke-width="2.1628" stroke-linecap="round" stroke-linejoin="round" stroke-miterlimit="10" x1="272.734" y1="79.191" x2="280.714" y2="79.191"/>
	
		<line fill="none" stroke="#000000" stroke-width="2.1628" stroke-linecap="round" stroke-linejoin="round" stroke-miterlimit="10" x1="270.428" y1="73.621" x2="276.068" y2="67.979"/>
</g>
<rect x="88.548" y="292.954" fill="none" stroke="#000000" stroke-width="2.4187" stroke-linecap="round" stroke-linejoin="round" stroke-miterlimit="10" width="273.761" height="43.098"/>
<polyline fill="none" stroke="#000000" stroke-width="2.1628" stroke-linecap="round" stroke-linejoin="round" stroke-miterlimit="10" points="
	109.883,138.258 109.883,103.73 289.376,103.73 289.376,180.449 "/>
<polyline fill="none" stroke="#000000" stroke-width="2.1628" stroke-linecap="round" stroke-linejoin="round" stroke-miterlimit="10" points="
	226.111,79.191 226.111,122.42 345.139,122.42 345.139,142.089 "/>
<circle fill="none" stroke="#000000" stroke-width="2.1628" stroke-linecap="round" stroke-linejoin="round" stroke-miterlimit="10" cx="109.883" cy="142.541" r="4.283"/>
<circle fill="none" stroke="#000000" stroke-width="2.1628" stroke-linecap="round" stroke-linejoin="round" stroke-miterlimit="10" cx="226.111" cy="74.908" r="4.283"/>
<circle fill="none" stroke="#000000" stroke-width="2.1628" stroke-linecap="round" stroke-linejoin="round" stroke-miterlimit="10" cx="345.139" cy="146.824" r="4.283"/>
<circle fill="none" stroke="#000000" stroke-width="2.1628" stroke-linecap="round" stroke-linejoin="round" stroke-miterlimit="10" cx="289.376" cy="185.443" r="4.283"/>
<g>
	
		<line fill="none" stroke="#000000" stroke-width="2.1628" stroke-linecap="round" stroke-linejoin="round" stroke-miterlimit="10" x1="81.97" y1="271.225" x2="71.835" y2="281.357"/>
	
		<line fill="none" stroke="#000000" stroke-width="2.1628" stroke-linecap="round" stroke-linejoin="round" stroke-miterlimit="10" x1="71.835" y1="271.225" x2="81.97" y2="281.357"/>
</g>
<g>
	
		<line fill="none" stroke="#000000" stroke-width="2.1628" stroke-linecap="round" stroke-linejoin="round" stroke-miterlimit="10" x1="87.037" y1="124.06" x2="76.903" y2="134.194"/>
	
		<line fill="none" stroke="#000000" stroke-width="2.1628" stroke-linecap="round" stroke-linejoin="round" stroke-miterlimit="10" x1="76.903" y1="124.06" x2="87.037" y2="134.194"/>
</g>
<g>
	
		<line fill="none" stroke="#000000" stroke-width="2.1628" stroke-linecap="round" stroke-linejoin="round" stroke-miterlimit="10" x1="415.742" y1="238.938" x2="405.607" y2="249.07"/>
	
		<line fill="none" stroke="#000000" stroke-width="2.1628" stroke-linecap="round" stroke-linejoin="round" stroke-miterlimit="10" x1="405.607" y1="238.938" x2="415.742" y2="249.07"/>
</g>
<path fill="none" stroke="#000000" stroke-width="2.2614" stroke-linecap="round" stroke-linejoin="round" stroke-miterlimit="10" d="
	M128.145,66.222c-3.232,0-6.19,1.163-8.487,3.089c-2.346-7.062-8.994-12.16-16.843-12.16c-8.787,0-16.064,6.389-17.487,14.771
	c-0.926-0.265-1.901-0.416-2.913-0.416c-5.843,0-10.58,4.737-10.58,10.58c0,5.375,4.012,9.803,9.202,10.479v0.1h47.107
	c7.302,0,13.222-5.92,13.222-13.222C141.367,72.141,135.447,66.222,128.145,66.222z"/>
<path fill="none" stroke="#000000" stroke-width="2.1628" stroke-linecap="round" stroke-linejoin="round" stroke-miterlimit="10" d="
	M373.279,133.477c2.349,0,4.496,0.845,6.166,2.244c1.703-5.13,6.533-8.834,12.236-8.834c6.383,0,11.67,4.642,12.703,10.731
	c0.674-0.192,1.381-0.302,2.115-0.302c4.245,0,7.686,3.441,7.686,7.686c0,3.905-2.914,7.122-6.685,7.613v0.073h-34.224
	c-5.305,0-9.604-4.301-9.604-9.605S367.975,133.477,373.279,133.477z"/>
<path fill="none" stroke="#000000" stroke-width="2.1628" stroke-linecap="round" stroke-linejoin="round" stroke-miterlimit="10" d="
	M420.464,315.173c-1.97,0-3.771,0.709-5.171,1.883c-1.43-4.303-5.479-7.41-10.262-7.41c-5.354,0-9.788,3.896-10.654,9
	c-0.564-0.159-1.158-0.252-1.773-0.252c-3.562,0-6.446,2.886-6.446,6.445c0,3.275,2.444,5.973,5.606,6.385v0.062h28.7
	c4.449,0,8.056-3.607,8.056-8.055C428.52,318.78,424.913,315.173,420.464,315.173z"/>
<path fill="none" stroke="#000000" stroke-width="2.1628" stroke-linecap="round" stroke-linejoin="round" stroke-miterlimit="10" d="
	M30.928,298.175c2.348,0,4.497,0.845,6.166,2.244c1.705-5.131,6.534-8.836,12.236-8.836c6.384,0,11.67,4.644,12.704,10.731
	c0.673-0.192,1.381-0.303,2.116-0.303c4.245,0,7.686,3.441,7.686,7.687c0,3.905-2.915,7.123-6.685,7.612v0.072H30.928
	c-5.305,0-9.605-4.299-9.605-9.604C21.323,302.475,25.623,298.175,30.928,298.175z"/>
<path fill="none" stroke="#000000" stroke-width="2.1628" stroke-linecap="round" stroke-linejoin="round" stroke-miterlimit="10" stroke-dasharray="3.2675,7.6242" d="
	M141.367,59.878c0,0,60.44-49.276,142.56-26.575c86.265,23.848,103.531,85.357,103.531,85.357"/>
<path fill="none" stroke="#000000" stroke-width="2.0166" stroke-linecap="round" stroke-linejoin="round" stroke-miterlimit="10" stroke-dasharray="3.0467,7.1089" d="
	M50.107,203.1c-23.431,3.635-35.21,53.364-8.854,73.104"/>
<path fill="none" stroke="#000000" stroke-width="2.1628" stroke-linecap="round" stroke-linejoin="round" stroke-miterlimit="10" stroke-dasharray="3.2675,7.6242" d="
	M345.139,346.585c0,0,40.139,17.547,57.731-6.932"/>
<line fill="none" stroke="#000000" stroke-width="2.1628" stroke-linecap="round" stroke-linejoin="round" stroke-miterlimit="10" x1="154.188" y1="146.824" x2="154.188" y2="121.478"/>
<line fill="none" stroke="#000000" stroke-width="2.1628" stroke-linecap="round" stroke-linejoin="round" stroke-miterlimit="10" x1="148.07" y1="146.824" x2="148.07" y2="134.194"/>
<line fill="none" stroke="#000000" stroke-width="2.1628" stroke-linecap="round" stroke-linejoin="round" stroke-miterlimit="10" x1="247.346" y1="152.688" x2="247.346" y2="134.151"/>
<line fill="none" stroke="#000000" stroke-width="2.1628" stroke-linecap="round" stroke-linejoin="round" stroke-miterlimit="10" x1="240.395" y1="151.107" x2="240.395" y2="143.419"/>
<line fill="none" stroke="#000000" stroke-width="2.1628" stroke-linecap="round" stroke-linejoin="round" stroke-miterlimit="10" x1="234.229" y1="151.107" x2="234.229" y2="138.258"/>
<line fill="none" stroke="#000000" stroke-width="2.1628" stroke-linecap="round" stroke-linejoin="round" stroke-miterlimit="10" x1="160.068" y1="146.824" x2="160.068" y2="134.151"/>
<line fill="none" stroke="#000000" stroke-width="2.1628" stroke-linecap="round" stroke-linejoin="round" stroke-miterlimit="10" x1="328.07" y1="150.352" x2="328.07" y2="144.683"/>
<line fill="none" stroke="#000000" stroke-width="2.1628" stroke-linecap="round" stroke-linejoin="round" stroke-miterlimit="10" x1="321.952" y1="150.352" x2="321.952" y2="136.542"/>
<line fill="none" stroke="#000000" stroke-width="2.1628" stroke-linecap="round" stroke-linejoin="round" stroke-miterlimit="10" x1="333.95" y1="150.352" x2="333.95" y2="140.488"/>
</svg>
