<?xml version="1.0" encoding="utf-8"?>
<!-- Generator: Adobe Illustrator 16.0.0, SVG Export Plug-In . SVG Version: 6.00 Build 0)  -->
<!DOCTYPE svg PUBLIC "-//W3C//DTD SVG 1.1//EN" "http://www.w3.org/Graphics/SVG/1.1/DTD/svg11.dtd">
<svg version="1.1" id="圖層_1" xmlns="http://www.w3.org/2000/svg" xmlns:xlink="http://www.w3.org/1999/xlink" x="0px" y="0px"
	 width="460px" height="380px" viewBox="0 0 460 380" enable-background="new 0 0 460 380" xml:space="preserve">
<g>
	<path fill="#53C2C8" d="M172.504,247.864h-13.112v23.047h-31.763v-23.047H80.148v-23.619l49.517-72.402h29.727v71.994h13.112
		V247.864z M127.629,223.837v-13.846c0-2.605,0.094-6.119,0.285-10.547c0.189-4.424,0.338-6.744,0.448-6.963h-0.896
		c-1.847,4.182-3.937,8.092-6.271,11.729l-13.194,19.627H127.629z"/>
	<path fill="#53C2C8" d="M266.895,211.54c0,21.066-3.53,36.5-10.587,46.301c-7.059,9.801-17.864,14.699-32.414,14.699
		c-14.226,0-24.949-5.115-32.169-15.352c-7.222-10.232-10.832-25.451-10.832-45.648c0-21.176,3.528-36.702,10.587-46.585
		c7.057-9.881,17.863-14.822,32.414-14.822c14.171,0,24.88,5.145,32.129,15.434C263.271,175.855,266.895,191.179,266.895,211.54z
		 M212.899,211.54c0,13.467,0.841,22.723,2.524,27.771c1.683,5.049,4.507,7.574,8.47,7.574c4.018,0,6.854-2.605,8.511-7.818
		c1.656-5.213,2.483-14.387,2.483-27.527c0-13.193-0.843-22.438-2.524-27.732c-1.684-5.293-4.508-7.939-8.47-7.939
		c-3.963,0-6.787,2.553-8.47,7.654C213.74,188.628,212.899,197.966,212.899,211.54z"/>
	<path fill="#53C2C8" d="M367.964,247.864h-13.111v23.047H323.09v-23.047h-47.48v-23.619l49.517-72.402h29.727v71.994h13.111
		V247.864z M323.09,223.837v-13.846c0-2.605,0.094-6.119,0.285-10.547c0.189-4.424,0.338-6.744,0.448-6.963h-0.896
		c-1.847,4.182-3.938,8.092-6.271,11.729l-13.193,19.627H323.09z"/>
</g>
<g>
	
		<line fill="none" stroke="#000000" stroke-width="2.1628" stroke-linecap="round" stroke-linejoin="round" stroke-miterlimit="10" x1="32.425" y1="178.263" x2="80.562" y2="178.263"/>
	
		<line fill="none" stroke="#000000" stroke-width="2.1628" stroke-linecap="round" stroke-linejoin="round" stroke-miterlimit="10" x1="92.116" y1="178.263" x2="102.392" y2="178.263"/>
	
		<line fill="none" stroke="#000000" stroke-width="2.1628" stroke-linecap="round" stroke-linejoin="round" stroke-miterlimit="10" x1="23.708" y1="164.714" x2="109.883" y2="164.714"/>
	
		<line fill="none" stroke="#000000" stroke-width="2.1628" stroke-linecap="round" stroke-linejoin="round" stroke-miterlimit="10" x1="16.614" y1="164.714" x2="9.521" y2="164.714"/>
	
		<line fill="none" stroke="#000000" stroke-width="2.1628" stroke-linecap="round" stroke-linejoin="round" stroke-miterlimit="10" x1="23.708" y1="151.843" x2="52.318" y2="151.843"/>
	
		<line fill="none" stroke="#000000" stroke-width="2.1628" stroke-linecap="round" stroke-linejoin="round" stroke-miterlimit="10" x1="59.978" y1="151.843" x2="120.063" y2="151.843"/>
</g>
<g>
	
		<line fill="none" stroke="#000000" stroke-width="2.1628" stroke-linecap="round" stroke-linejoin="round" stroke-miterlimit="10" x1="372.684" y1="285.749" x2="424.195" y2="285.749"/>
	
		<line fill="none" stroke="#000000" stroke-width="2.1628" stroke-linecap="round" stroke-linejoin="round" stroke-miterlimit="10" x1="432.574" y1="285.749" x2="440.024" y2="285.749"/>
	
		<line fill="none" stroke="#000000" stroke-width="2.1628" stroke-linecap="round" stroke-linejoin="round" stroke-miterlimit="10" x1="382.971" y1="272.202" x2="450.479" y2="272.202"/>
	
		<line fill="none" stroke="#000000" stroke-width="2.1628" stroke-linecap="round" stroke-linejoin="round" stroke-miterlimit="10" x1="377.827" y1="272.202" x2="372.684" y2="272.202"/>
	
		<line fill="none" stroke="#000000" stroke-width="2.1628" stroke-linecap="round" stroke-linejoin="round" stroke-miterlimit="10" x1="372.684" y1="259.331" x2="403.716" y2="259.331"/>
	
		<line fill="none" stroke="#000000" stroke-width="2.1628" stroke-linecap="round" stroke-linejoin="round" stroke-miterlimit="10" x1="409.271" y1="259.331" x2="432.574" y2="259.331"/>
</g>
<g>
	<path fill="none" stroke="#000000" stroke-width="3.2675" stroke-miterlimit="10" d="M178.668,247.409h-13.112v23.047h-31.763
		v-23.047H86.313V223.79l49.517-72.402h29.727v71.994h13.112V247.409z M133.794,223.382v-13.846c0-2.605,0.094-6.119,0.285-10.547
		c0.189-4.424,0.338-6.744,0.448-6.963h-0.896c-1.847,4.182-3.937,8.092-6.271,11.729l-13.194,19.627H133.794z"/>
	<path fill="none" stroke="#000000" stroke-width="3.2675" stroke-miterlimit="10" d="M273.06,211.085
		c0,21.066-3.53,36.5-10.588,46.301c-7.059,9.801-17.863,14.699-32.413,14.699c-14.226,0-24.95-5.115-32.17-15.352
		c-7.222-10.232-10.832-25.451-10.832-45.648c0-21.176,3.528-36.702,10.587-46.585c7.057-9.881,17.862-14.822,32.414-14.822
		c14.171,0,24.88,5.145,32.128,15.433C269.436,175.401,273.06,190.724,273.06,211.085z M219.063,211.085
		c0,13.467,0.842,22.723,2.525,27.771c1.682,5.049,4.506,7.574,8.47,7.574c4.018,0,6.853-2.605,8.51-7.818
		c1.656-5.211,2.483-14.387,2.483-27.527c0-13.193-0.842-22.438-2.523-27.732c-1.684-5.293-4.508-7.939-8.47-7.939
		c-3.964,0-6.788,2.553-8.47,7.655C219.905,188.173,219.063,197.511,219.063,211.085z"/>
	<path fill="none" stroke="#000000" stroke-width="3.2675" stroke-miterlimit="10" d="M374.129,247.409h-13.112v23.047h-31.762
		v-23.047h-47.481V223.79l49.517-72.402h29.727v71.994h13.112V247.409z M329.255,223.382v-13.846c0-2.605,0.094-6.119,0.285-10.547
		c0.189-4.424,0.338-6.744,0.447-6.963h-0.896c-1.847,4.182-3.938,8.092-6.271,11.729l-13.193,19.627H329.255z"/>
</g>
<g>
	<path d="M162.556,322.626v-26.582h17.776v7.209h-8.407v2.561h7.626v6.809h-7.626v2.797h8.625v7.207H162.556z"/>
	<path d="M184.417,322.626v-26.582h12.02c3.498,0,6.161,0.77,7.989,2.307c1.84,1.549,2.76,3.766,2.76,6.645
		c0,1.889-0.461,3.439-1.38,4.648c-0.944,1.26-2.197,1.98-3.758,2.162l7.1,10.82h-10.713l-4.648-8.77v8.77H184.417z M193.786,302.89
		v5.193h1.489c0.932,0,1.64-0.225,2.125-0.672c0.472-0.424,0.708-1.053,0.708-1.889c0-0.848-0.236-1.508-0.708-1.979
		c-0.484-0.436-1.192-0.654-2.125-0.654H193.786z"/>
	<path d="M211.035,322.626v-26.582h12.021c3.498,0,6.161,0.77,7.988,2.307c1.84,1.549,2.761,3.766,2.761,6.645
		c0,1.889-0.461,3.439-1.381,4.648c-0.943,1.26-2.196,1.98-3.758,2.162l7.1,10.82h-10.713l-4.648-8.77v8.77H211.035z
		 M220.404,302.89v5.193h1.489c0.932,0,1.64-0.225,2.124-0.672c0.472-0.424,0.708-1.053,0.708-1.889
		c0-0.848-0.236-1.508-0.708-1.979c-0.484-0.436-1.192-0.654-2.124-0.654H220.404z"/>
	<path d="M265.144,309.39c0,1.961-0.352,3.771-1.054,5.43c-0.726,1.719-1.73,3.219-3.014,4.502
		c-1.308,1.271-2.839,2.264-4.594,2.979c-1.755,0.689-3.607,1.035-5.556,1.035c-1.974,0-3.832-0.346-5.574-1.035
		c-1.695-0.689-3.232-1.695-4.612-3.014c-1.332-1.344-2.336-2.82-3.014-4.432c-0.666-1.658-0.999-3.479-0.999-5.465
		c0-1.984,0.333-3.807,0.999-5.465c0.701-1.646,1.706-3.135,3.014-4.467c1.331-1.295,2.856-2.299,4.575-3.014
		c1.731-0.666,3.602-0.998,5.611-0.998c1.984,0,3.849,0.332,5.592,0.998c1.731,0.701,3.269,1.707,4.612,3.014
		c1.282,1.307,2.281,2.797,2.995,4.467C264.805,305.606,265.144,307.429,265.144,309.39z M250.927,314.401
		c1.343,0,2.427-0.453,3.25-1.361c0.811-0.932,1.216-2.148,1.216-3.65c0-1.537-0.405-2.766-1.216-3.686
		c-0.836-0.92-1.919-1.381-3.25-1.381c-1.332,0-2.422,0.461-3.269,1.381c-0.812,0.92-1.217,2.148-1.217,3.686
		c0,1.502,0.405,2.719,1.217,3.65C248.493,313.948,249.583,314.401,250.927,314.401z"/>
	<path d="M269.156,322.626v-26.582h12.021c3.498,0,6.161,0.77,7.988,2.307c1.84,1.549,2.761,3.766,2.761,6.645
		c0,1.889-0.461,3.439-1.381,4.648c-0.943,1.26-2.196,1.98-3.758,2.162l7.1,10.82h-10.713l-4.648-8.77v8.77H269.156z
		 M278.525,302.89v5.193h1.489c0.932,0,1.64-0.225,2.124-0.672c0.472-0.424,0.708-1.053,0.708-1.889
		c0-0.848-0.236-1.508-0.708-1.979c-0.484-0.436-1.192-0.654-2.124-0.654H278.525z"/>
</g>
<g>
	
		<line fill="none" stroke="#000000" stroke-width="2.1628" stroke-linecap="round" stroke-linejoin="round" stroke-miterlimit="10" x1="395.164" y1="175.326" x2="395.164" y2="164.288"/>
	
		<line fill="none" stroke="#000000" stroke-width="2.1628" stroke-linecap="round" stroke-linejoin="round" stroke-miterlimit="10" x1="387.458" y1="178.519" x2="379.652" y2="170.712"/>
	
		<line fill="none" stroke="#000000" stroke-width="2.1628" stroke-linecap="round" stroke-linejoin="round" stroke-miterlimit="10" x1="384.267" y1="186.224" x2="373.228" y2="186.224"/>
	
		<line fill="none" stroke="#000000" stroke-width="2.1628" stroke-linecap="round" stroke-linejoin="round" stroke-miterlimit="10" x1="387.458" y1="193.929" x2="379.652" y2="201.735"/>
	
		<line fill="none" stroke="#000000" stroke-width="2.1628" stroke-linecap="round" stroke-linejoin="round" stroke-miterlimit="10" x1="395.164" y1="197.12" x2="395.164" y2="208.159"/>
	
		<line fill="none" stroke="#000000" stroke-width="2.1628" stroke-linecap="round" stroke-linejoin="round" stroke-miterlimit="10" x1="402.87" y1="193.929" x2="410.676" y2="201.735"/>
	
		<line fill="none" stroke="#000000" stroke-width="2.1628" stroke-linecap="round" stroke-linejoin="round" stroke-miterlimit="10" x1="406.062" y1="186.224" x2="417.101" y2="186.224"/>
	
		<line fill="none" stroke="#000000" stroke-width="2.1628" stroke-linecap="round" stroke-linejoin="round" stroke-miterlimit="10" x1="402.87" y1="178.519" x2="410.676" y2="170.712"/>
</g>
<g>
	
		<line fill="none" stroke="#000000" stroke-width="2.1628" stroke-linecap="round" stroke-linejoin="round" stroke-miterlimit="10" x1="48.936" y1="230.292" x2="48.936" y2="222.313"/>
	
		<line fill="none" stroke="#000000" stroke-width="2.1628" stroke-linecap="round" stroke-linejoin="round" stroke-miterlimit="10" x1="43.366" y1="232.601" x2="37.724" y2="226.958"/>
	
		<line fill="none" stroke="#000000" stroke-width="2.1628" stroke-linecap="round" stroke-linejoin="round" stroke-miterlimit="10" x1="41.059" y1="238.169" x2="33.08" y2="238.169"/>
	
		<line fill="none" stroke="#000000" stroke-width="2.1628" stroke-linecap="round" stroke-linejoin="round" stroke-miterlimit="10" x1="43.366" y1="243.739" x2="37.724" y2="249.382"/>
	
		<line fill="none" stroke="#000000" stroke-width="2.1628" stroke-linecap="round" stroke-linejoin="round" stroke-miterlimit="10" x1="48.936" y1="246.046" x2="48.936" y2="254.026"/>
	
		<line fill="none" stroke="#000000" stroke-width="2.1628" stroke-linecap="round" stroke-linejoin="round" stroke-miterlimit="10" x1="54.506" y1="243.739" x2="60.148" y2="249.382"/>
	
		<line fill="none" stroke="#000000" stroke-width="2.1628" stroke-linecap="round" stroke-linejoin="round" stroke-miterlimit="10" x1="56.813" y1="238.169" x2="64.792" y2="238.169"/>
	
		<line fill="none" stroke="#000000" stroke-width="2.1628" stroke-linecap="round" stroke-linejoin="round" stroke-miterlimit="10" x1="54.506" y1="232.601" x2="60.148" y2="226.958"/>
</g>
<g>
	
		<line fill="none" stroke="#000000" stroke-width="2.1628" stroke-linecap="round" stroke-linejoin="round" stroke-miterlimit="10" x1="264.857" y1="65.479" x2="264.857" y2="57.5"/>
	
		<line fill="none" stroke="#000000" stroke-width="2.1628" stroke-linecap="round" stroke-linejoin="round" stroke-miterlimit="10" x1="259.288" y1="67.787" x2="253.646" y2="62.145"/>
	
		<line fill="none" stroke="#000000" stroke-width="2.1628" stroke-linecap="round" stroke-linejoin="round" stroke-miterlimit="10" x1="256.98" y1="73.357" x2="249.001" y2="73.357"/>
	
		<line fill="none" stroke="#000000" stroke-width="2.1628" stroke-linecap="round" stroke-linejoin="round" stroke-miterlimit="10" x1="259.288" y1="78.927" x2="253.646" y2="84.569"/>
	
		<line fill="none" stroke="#000000" stroke-width="2.1628" stroke-linecap="round" stroke-linejoin="round" stroke-miterlimit="10" x1="264.857" y1="81.234" x2="264.857" y2="89.213"/>
	
		<line fill="none" stroke="#000000" stroke-width="2.1628" stroke-linecap="round" stroke-linejoin="round" stroke-miterlimit="10" x1="270.428" y1="78.927" x2="276.069" y2="84.569"/>
	
		<line fill="none" stroke="#000000" stroke-width="2.1628" stroke-linecap="round" stroke-linejoin="round" stroke-miterlimit="10" x1="272.734" y1="73.357" x2="280.714" y2="73.357"/>
	
		<line fill="none" stroke="#000000" stroke-width="2.1628" stroke-linecap="round" stroke-linejoin="round" stroke-miterlimit="10" x1="270.428" y1="67.787" x2="276.069" y2="62.145"/>
</g>
<rect x="88.548" y="287.12" fill="none" stroke="#000000" stroke-width="2.4187" stroke-linecap="round" stroke-linejoin="round" stroke-miterlimit="10" width="273.761" height="43.098"/>
<g>
	<path d="M133.977,347.931h-2.681v-0.969h6.525v0.969h-2.694v7.846h-1.151V347.931z"/>
	<path d="M138.668,346.491h1.151v3.949h0.026c0.183-0.326,0.471-0.615,0.824-0.811c0.34-0.195,0.745-0.326,1.177-0.326
		c0.85,0,2.21,0.521,2.21,2.705v3.768h-1.151v-3.637c0-1.02-0.379-1.883-1.464-1.883c-0.746,0-1.334,0.523-1.543,1.152
		c-0.065,0.156-0.078,0.326-0.078,0.549v3.818h-1.151V346.491z"/>
	<path d="M146.563,352.821c0.026,1.555,1.02,2.195,2.171,2.195c0.824,0,1.321-0.143,1.752-0.326l0.196,0.824
		c-0.405,0.184-1.098,0.393-2.105,0.393c-1.949,0-3.112-1.281-3.112-3.191c0-1.908,1.125-3.412,2.968-3.412
		c2.066,0,2.615,1.816,2.615,2.98c0,0.236-0.026,0.418-0.039,0.537H146.563z M149.937,351.997c0.013-0.732-0.301-1.871-1.595-1.871
		c-1.164,0-1.674,1.072-1.766,1.871H149.937z"/>
	<path d="M155.241,351.421c0-0.744-0.013-1.385-0.052-1.975h1.007l0.039,1.242h0.053c0.288-0.85,0.98-1.385,1.752-1.385
		c0.131,0,0.223,0.012,0.327,0.039v1.084c-0.118-0.025-0.235-0.039-0.393-0.039c-0.811,0-1.386,0.615-1.543,1.479
		c-0.026,0.156-0.052,0.34-0.052,0.535v3.375h-1.138V351.421z"/>
	<path d="M160.024,352.821c0.026,1.555,1.02,2.195,2.171,2.195c0.824,0,1.321-0.143,1.752-0.326l0.196,0.824
		c-0.405,0.184-1.098,0.393-2.105,0.393c-1.949,0-3.112-1.281-3.112-3.191c0-1.908,1.125-3.412,2.968-3.412
		c2.066,0,2.615,1.816,2.615,2.98c0,0.236-0.026,0.418-0.039,0.537H160.024z M163.398,351.997c0.013-0.732-0.301-1.871-1.595-1.871
		c-1.164,0-1.674,1.072-1.766,1.871H163.398z"/>
	<path d="M170.247,354.796h-0.026c-0.34,0.627-1.046,1.123-2.066,1.123c-1.478,0-2.681-1.281-2.681-3.203
		c0-2.367,1.53-3.412,2.864-3.412c0.98,0,1.634,0.482,1.948,1.098h0.026l0.039-0.955h1.085c-0.026,0.537-0.039,1.086-0.039,1.74
		v7.178h-1.151V354.796z M170.247,352.009c0-0.156-0.013-0.34-0.052-0.482c-0.17-0.707-0.785-1.309-1.648-1.309
		c-1.19,0-1.909,1.008-1.909,2.434c0,1.254,0.602,2.354,1.87,2.354c0.745,0,1.386-0.459,1.647-1.256
		c0.053-0.156,0.092-0.379,0.092-0.549V352.009z"/>
	<path d="M178.586,354.05c0,0.654,0.013,1.229,0.053,1.727h-1.02l-0.065-1.033h-0.026c-0.301,0.51-0.968,1.176-2.092,1.176
		c-0.994,0-2.184-0.549-2.184-2.771v-3.701h1.15v3.506c0,1.203,0.366,2.014,1.413,2.014c0.771,0,1.308-0.537,1.517-1.047
		c0.065-0.17,0.105-0.379,0.105-0.588v-3.885h1.15V354.05z"/>
	<path d="M181.132,352.821c0.026,1.555,1.02,2.195,2.171,2.195c0.824,0,1.321-0.143,1.752-0.326l0.196,0.824
		c-0.405,0.184-1.098,0.393-2.105,0.393c-1.949,0-3.112-1.281-3.112-3.191c0-1.908,1.125-3.412,2.968-3.412
		c2.066,0,2.615,1.816,2.615,2.98c0,0.236-0.026,0.418-0.039,0.537H181.132z M184.506,351.997c0.013-0.732-0.301-1.871-1.595-1.871
		c-1.164,0-1.674,1.072-1.766,1.871H184.506z"/>
	<path d="M186.883,354.599c0.34,0.223,0.941,0.459,1.517,0.459c0.837,0,1.229-0.42,1.229-0.943c0-0.549-0.327-0.85-1.177-1.162
		c-1.138-0.406-1.674-1.033-1.674-1.793c0-1.02,0.824-1.855,2.184-1.855c0.641,0,1.203,0.182,1.556,0.391l-0.288,0.838
		c-0.249-0.156-0.707-0.367-1.295-0.367c-0.68,0-1.059,0.393-1.059,0.863c0,0.523,0.379,0.76,1.203,1.072
		c1.099,0.42,1.661,0.969,1.661,1.91c0,1.111-0.863,1.896-2.367,1.896c-0.693,0-1.334-0.17-1.779-0.432L186.883,354.599z"/>
	<path d="M193.602,347.63v1.816h1.647v0.877h-1.647v3.412c0,0.785,0.222,1.23,0.863,1.23c0.301,0,0.523-0.039,0.667-0.08
		l0.052,0.863c-0.222,0.092-0.575,0.158-1.02,0.158c-0.536,0-0.967-0.17-1.242-0.484c-0.327-0.34-0.444-0.902-0.444-1.648v-3.451
		h-0.981v-0.877h0.981v-1.516L193.602,347.63z"/>
	<path d="M197.104,352.821c0.026,1.555,1.02,2.195,2.171,2.195c0.824,0,1.321-0.143,1.752-0.326l0.196,0.824
		c-0.405,0.184-1.098,0.393-2.105,0.393c-1.949,0-3.112-1.281-3.112-3.191c0-1.908,1.125-3.412,2.968-3.412
		c2.066,0,2.615,1.816,2.615,2.98c0,0.236-0.026,0.418-0.039,0.537H197.104z M200.478,351.997c0.013-0.732-0.301-1.871-1.595-1.871
		c-1.164,0-1.674,1.072-1.766,1.871H200.478z"/>
	<path d="M208.478,346.491v7.65c0,0.563,0.013,1.203,0.053,1.635h-1.033l-0.053-1.1h-0.026c-0.353,0.707-1.125,1.242-2.158,1.242
		c-1.53,0-2.707-1.293-2.707-3.217c-0.013-2.105,1.294-3.398,2.837-3.398c0.968,0,1.622,0.457,1.909,0.967h0.027v-3.779H208.478z
		 M207.327,352.022c0-0.143-0.014-0.34-0.053-0.484c-0.17-0.73-0.798-1.332-1.661-1.332c-1.19,0-1.896,1.045-1.896,2.445
		c0,1.281,0.628,2.34,1.87,2.34c0.771,0,1.478-0.51,1.687-1.373c0.039-0.156,0.053-0.314,0.053-0.496V352.022z"/>
	<path d="M213.153,351.513c0-0.811-0.026-1.465-0.053-2.066h1.033l0.053,1.086h0.025c0.471-0.771,1.217-1.229,2.25-1.229
		c1.529,0,2.681,1.293,2.681,3.217c0,2.275-1.386,3.398-2.877,3.398c-0.837,0-1.569-0.365-1.948-0.992h-0.026v3.438h-1.138V351.513z
		 M214.291,353.2c0,0.17,0.026,0.326,0.052,0.471c0.21,0.797,0.902,1.346,1.727,1.346c1.217,0,1.922-0.992,1.922-2.445
		c0-1.268-0.666-2.354-1.883-2.354c-0.784,0-1.517,0.563-1.738,1.426c-0.04,0.145-0.079,0.314-0.079,0.471V353.2z"/>
	<path d="M224.095,355.776l-0.092-0.799h-0.039c-0.354,0.498-1.033,0.941-1.936,0.941c-1.281,0-1.936-0.902-1.936-1.816
		c0-1.531,1.36-2.367,3.806-2.354v-0.131c0-0.523-0.144-1.465-1.438-1.465c-0.588,0-1.203,0.182-1.648,0.471l-0.261-0.76
		c0.522-0.34,1.281-0.561,2.079-0.561c1.936,0,2.406,1.32,2.406,2.588v2.367c0,0.549,0.025,1.086,0.104,1.518H224.095z
		 M223.925,352.546c-1.256-0.025-2.682,0.195-2.682,1.426c0,0.744,0.498,1.098,1.086,1.098c0.824,0,1.347-0.523,1.529-1.059
		c0.04-0.117,0.066-0.248,0.066-0.367V352.546z"/>
	<path d="M232.343,349.446c-0.026,0.459-0.053,0.969-0.053,1.74v3.674c0,1.451-0.287,2.342-0.902,2.891
		c-0.614,0.574-1.504,0.758-2.301,0.758c-0.759,0-1.596-0.184-2.105-0.523l0.287-0.875c0.419,0.262,1.072,0.496,1.857,0.496
		c1.177,0,2.04-0.615,2.04-2.209v-0.707h-0.026c-0.354,0.588-1.033,1.059-2.014,1.059c-1.569,0-2.693-1.334-2.693-3.086
		c0-2.145,1.398-3.359,2.85-3.359c1.099,0,1.7,0.574,1.975,1.098h0.026l0.053-0.955H232.343z M231.152,351.944
		c0-0.195-0.013-0.365-0.065-0.523c-0.209-0.666-0.771-1.215-1.608-1.215c-1.098,0-1.883,0.928-1.883,2.393
		c0,1.242,0.628,2.275,1.87,2.275c0.706,0,1.347-0.445,1.596-1.178c0.065-0.195,0.091-0.418,0.091-0.613V351.944z"/>
	<path d="M234.836,352.821c0.025,1.555,1.02,2.195,2.171,2.195c0.823,0,1.32-0.143,1.752-0.326l0.196,0.824
		c-0.405,0.184-1.099,0.393-2.105,0.393c-1.948,0-3.112-1.281-3.112-3.191c0-1.908,1.124-3.412,2.969-3.412
		c2.065,0,2.615,1.816,2.615,2.98c0,0.236-0.026,0.418-0.04,0.537H234.836z M238.209,351.997c0.014-0.732-0.301-1.871-1.595-1.871
		c-1.164,0-1.674,1.072-1.766,1.871H238.209z"/>
	<path d="M248.979,346.491v7.65c0,0.563,0.013,1.203,0.052,1.635h-1.032l-0.053-1.1h-0.026c-0.353,0.707-1.124,1.242-2.157,1.242
		c-1.53,0-2.707-1.293-2.707-3.217c-0.014-2.105,1.295-3.398,2.838-3.398c0.968,0,1.621,0.457,1.909,0.967h0.025v-3.779H248.979z
		 M247.828,352.022c0-0.143-0.013-0.34-0.052-0.484c-0.17-0.73-0.798-1.332-1.661-1.332c-1.189,0-1.896,1.045-1.896,2.445
		c0,1.281,0.627,2.34,1.869,2.34c0.772,0,1.479-0.51,1.688-1.373c0.039-0.156,0.052-0.314,0.052-0.496V352.022z"/>
	<path d="M256.612,352.56c0,2.34-1.622,3.359-3.152,3.359c-1.713,0-3.033-1.254-3.033-3.256c0-2.117,1.386-3.359,3.139-3.359
		C255.383,349.304,256.612,350.624,256.612,352.56z M251.591,352.624c0,1.387,0.797,2.434,1.922,2.434
		c1.099,0,1.922-1.033,1.922-2.459c0-1.072-0.536-2.434-1.896-2.434C252.179,350.165,251.591,351.421,251.591,352.624z"/>
	<path d="M258.701,352.821c0.025,1.555,1.02,2.195,2.171,2.195c0.823,0,1.32-0.143,1.752-0.326l0.196,0.824
		c-0.405,0.184-1.099,0.393-2.105,0.393c-1.948,0-3.112-1.281-3.112-3.191c0-1.908,1.124-3.412,2.969-3.412
		c2.065,0,2.615,1.816,2.615,2.98c0,0.236-0.026,0.418-0.04,0.537H258.701z M262.074,351.997c0.014-0.732-0.301-1.871-1.595-1.871
		c-1.164,0-1.674,1.072-1.766,1.871H262.074z"/>
	<path d="M264.451,354.599c0.34,0.223,0.941,0.459,1.517,0.459c0.837,0,1.229-0.42,1.229-0.943c0-0.549-0.327-0.85-1.177-1.162
		c-1.138-0.406-1.674-1.033-1.674-1.793c0-1.02,0.823-1.855,2.184-1.855c0.641,0,1.203,0.182,1.556,0.391l-0.287,0.838
		c-0.249-0.156-0.706-0.367-1.295-0.367c-0.68,0-1.059,0.393-1.059,0.863c0,0.523,0.379,0.76,1.202,1.072
		c1.099,0.42,1.661,0.969,1.661,1.91c0,1.111-0.863,1.896-2.367,1.896c-0.692,0-1.333-0.17-1.778-0.432L264.451,354.599z"/>
	<path d="M272.555,351.159c0-0.652-0.014-1.189-0.053-1.713h1.02l0.065,1.047h0.026c0.314-0.602,1.046-1.189,2.093-1.189
		c0.876,0,2.235,0.521,2.235,2.693v3.779h-1.15v-3.648c0-1.02-0.379-1.871-1.465-1.871c-0.758,0-1.347,0.537-1.543,1.178
		c-0.052,0.145-0.078,0.34-0.078,0.535v3.807h-1.15V351.159z"/>
	<path d="M285.536,352.56c0,2.34-1.622,3.359-3.152,3.359c-1.713,0-3.033-1.254-3.033-3.256c0-2.117,1.386-3.359,3.139-3.359
		C284.307,349.304,285.536,350.624,285.536,352.56z M280.515,352.624c0,1.387,0.797,2.434,1.922,2.434
		c1.099,0,1.922-1.033,1.922-2.459c0-1.072-0.536-2.434-1.896-2.434C281.103,350.165,280.515,351.421,280.515,352.624z"/>
	<path d="M288.37,347.63v1.816h1.647v0.877h-1.647v3.412c0,0.785,0.223,1.23,0.863,1.23c0.301,0,0.522-0.039,0.667-0.08l0.052,0.863
		c-0.222,0.092-0.575,0.158-1.02,0.158c-0.536,0-0.968-0.17-1.242-0.484c-0.327-0.34-0.445-0.902-0.445-1.648v-3.451h-0.98v-0.877
		h0.98v-1.516L288.37,347.63z"/>
	<path d="M294.722,352.821c0.025,1.555,1.02,2.195,2.17,2.195c0.824,0,1.321-0.143,1.753-0.326l0.196,0.824
		c-0.405,0.184-1.099,0.393-2.105,0.393c-1.948,0-3.112-1.281-3.112-3.191c0-1.908,1.124-3.412,2.969-3.412
		c2.065,0,2.615,1.816,2.615,2.98c0,0.236-0.026,0.418-0.04,0.537H294.722z M298.095,351.997c0.014-0.732-0.301-1.871-1.595-1.871
		c-1.164,0-1.674,1.072-1.766,1.871H298.095z"/>
	<path d="M301.126,349.446l0.901,1.361c0.236,0.352,0.432,0.68,0.642,1.031h0.039c0.209-0.379,0.418-0.705,0.628-1.045l0.889-1.348
		h1.242l-2.157,3.061l2.223,3.27h-1.308l-0.929-1.426c-0.248-0.367-0.457-0.719-0.68-1.098h-0.026
		c-0.209,0.379-0.432,0.719-0.667,1.098l-0.915,1.426h-1.269l2.249-3.23l-2.145-3.1H301.126z"/>
	<path d="M307.923,347.669c0.013,0.393-0.274,0.705-0.732,0.705c-0.405,0-0.693-0.313-0.693-0.705c0-0.406,0.301-0.721,0.72-0.721
		C307.648,346.948,307.923,347.263,307.923,347.669z M306.642,355.776v-6.33h1.15v6.33H306.642z"/>
	<path d="M309.543,354.599c0.34,0.223,0.941,0.459,1.517,0.459c0.837,0,1.229-0.42,1.229-0.943c0-0.549-0.327-0.85-1.177-1.162
		c-1.138-0.406-1.674-1.033-1.674-1.793c0-1.02,0.823-1.855,2.184-1.855c0.641,0,1.203,0.182,1.556,0.391l-0.287,0.838
		c-0.249-0.156-0.706-0.367-1.295-0.367c-0.68,0-1.059,0.393-1.059,0.863c0,0.523,0.379,0.76,1.202,1.072
		c1.099,0.42,1.661,0.969,1.661,1.91c0,1.111-0.863,1.896-2.367,1.896c-0.692,0-1.333-0.17-1.778-0.432L309.543,354.599z"/>
	<path d="M316.262,347.63v1.816h1.647v0.877h-1.647v3.412c0,0.785,0.223,1.23,0.863,1.23c0.301,0,0.522-0.039,0.667-0.08
		l0.052,0.863c-0.222,0.092-0.575,0.158-1.02,0.158c-0.536,0-0.968-0.17-1.242-0.484c-0.327-0.34-0.445-0.902-0.445-1.648v-3.451
		h-0.98v-0.877h0.98v-1.516L316.262,347.63z"/>
	<path d="M318.888,355.097c0-0.484,0.327-0.824,0.785-0.824c0.457,0,0.771,0.34,0.771,0.824c0,0.471-0.301,0.822-0.785,0.822
		C319.202,355.919,318.888,355.567,318.888,355.097z"/>
</g>
<polyline fill="none" stroke="#000000" stroke-width="2.1628" stroke-linecap="round" stroke-linejoin="round" stroke-miterlimit="10" points="
	109.883,132.424 109.883,97.896 289.376,97.896 289.376,174.615 "/>
<polyline fill="none" stroke="#000000" stroke-width="2.1628" stroke-linecap="round" stroke-linejoin="round" stroke-miterlimit="10" points="
	226.111,73.357 226.111,116.586 345.139,116.586 345.139,136.255 "/>
<circle fill="none" stroke="#000000" stroke-width="2.1628" stroke-linecap="round" stroke-linejoin="round" stroke-miterlimit="10" cx="109.883" cy="136.707" r="4.283"/>
<circle fill="none" stroke="#000000" stroke-width="2.1628" stroke-linecap="round" stroke-linejoin="round" stroke-miterlimit="10" cx="226.111" cy="69.074" r="4.283"/>
<circle fill="none" stroke="#000000" stroke-width="2.1628" stroke-linecap="round" stroke-linejoin="round" stroke-miterlimit="10" cx="345.139" cy="140.99" r="4.283"/>
<circle fill="none" stroke="#000000" stroke-width="2.1628" stroke-linecap="round" stroke-linejoin="round" stroke-miterlimit="10" cx="289.376" cy="179.609" r="4.283"/>
<g>
	
		<line fill="none" stroke="#000000" stroke-width="2.1628" stroke-linecap="round" stroke-linejoin="round" stroke-miterlimit="10" x1="81.97" y1="265.39" x2="71.835" y2="275.524"/>
	
		<line fill="none" stroke="#000000" stroke-width="2.1628" stroke-linecap="round" stroke-linejoin="round" stroke-miterlimit="10" x1="71.835" y1="265.39" x2="81.97" y2="275.524"/>
</g>
<g>
	
		<line fill="none" stroke="#000000" stroke-width="2.1628" stroke-linecap="round" stroke-linejoin="round" stroke-miterlimit="10" x1="87.037" y1="118.226" x2="76.903" y2="128.36"/>
	
		<line fill="none" stroke="#000000" stroke-width="2.1628" stroke-linecap="round" stroke-linejoin="round" stroke-miterlimit="10" x1="76.903" y1="118.226" x2="87.037" y2="128.36"/>
</g>
<g>
	
		<line fill="none" stroke="#000000" stroke-width="2.1628" stroke-linecap="round" stroke-linejoin="round" stroke-miterlimit="10" x1="415.742" y1="233.103" x2="405.608" y2="243.237"/>
	
		<line fill="none" stroke="#000000" stroke-width="2.1628" stroke-linecap="round" stroke-linejoin="round" stroke-miterlimit="10" x1="405.608" y1="233.103" x2="415.742" y2="243.237"/>
</g>
<path fill="none" stroke="#000000" stroke-width="2.2614" stroke-linecap="round" stroke-linejoin="round" stroke-miterlimit="10" d="
	M128.145,60.388c-3.232,0-6.19,1.163-8.487,3.089c-2.346-7.062-8.994-12.16-16.843-12.16c-8.787,0-16.064,6.389-17.487,14.771
	c-0.926-0.265-1.901-0.416-2.913-0.416c-5.843,0-10.58,4.737-10.58,10.58c0,5.375,4.012,9.803,9.202,10.479v0.1h47.107
	c7.302,0,13.222-5.92,13.222-13.222C141.367,66.307,135.447,60.388,128.145,60.388z"/>
<path fill="none" stroke="#000000" stroke-width="2.1628" stroke-linecap="round" stroke-linejoin="round" stroke-miterlimit="10" d="
	M373.279,127.643c2.349,0,4.497,0.845,6.166,2.244c1.704-5.13,6.534-8.834,12.236-8.834c6.384,0,11.67,4.642,12.704,10.731
	c0.673-0.192,1.381-0.302,2.115-0.302c4.245,0,7.686,3.441,7.686,7.686c0,3.905-2.914,7.122-6.685,7.613v0.073h-34.223
	c-5.305,0-9.605-4.301-9.605-9.605S367.975,127.643,373.279,127.643z"/>
<path fill="none" stroke="#000000" stroke-width="2.1628" stroke-linecap="round" stroke-linejoin="round" stroke-miterlimit="10" d="
	M420.464,309.339c-1.97,0-3.771,0.709-5.171,1.883c-1.43-4.303-5.479-7.41-10.262-7.41c-5.354,0-9.788,3.895-10.654,9
	c-0.564-0.16-1.158-0.252-1.774-0.252c-3.561,0-6.446,2.885-6.446,6.445c0,3.275,2.444,5.973,5.606,6.385v0.061h28.701
	c4.449,0,8.056-3.607,8.056-8.055C428.52,312.946,424.913,309.339,420.464,309.339z"/>
<path fill="none" stroke="#000000" stroke-width="2.1628" stroke-linecap="round" stroke-linejoin="round" stroke-miterlimit="10" d="
	M30.928,292.341c2.348,0,4.497,0.844,6.166,2.244c1.705-5.131,6.534-8.836,12.236-8.836c6.384,0,11.67,4.643,12.704,10.732
	c0.673-0.193,1.381-0.303,2.116-0.303c4.245,0,7.686,3.441,7.686,7.686c0,3.906-2.915,7.123-6.685,7.613v0.072H30.928
	c-5.305,0-9.605-4.299-9.605-9.605C21.323,296.64,25.623,292.341,30.928,292.341z"/>
<path fill="none" stroke="#000000" stroke-width="2.1628" stroke-linecap="round" stroke-linejoin="round" stroke-miterlimit="10" stroke-dasharray="3.2675,7.6242" d="
	M141.367,54.044c0,0,60.44-49.276,142.56-26.575c86.264,23.848,103.531,85.357,103.531,85.357"/>
<path fill="none" stroke="#000000" stroke-width="2.0166" stroke-linecap="round" stroke-linejoin="round" stroke-miterlimit="10" stroke-dasharray="3.0467,7.1089" d="
	M50.107,197.265c-23.431,3.635-35.21,53.365-8.854,73.105"/>
<path fill="none" stroke="#000000" stroke-width="2.1628" stroke-linecap="round" stroke-linejoin="round" stroke-miterlimit="10" stroke-dasharray="3.2675,7.6242" d="
	M345.139,340.751c0,0,40.138,17.547,57.731-6.932"/>
<line fill="none" stroke="#000000" stroke-width="2.1628" stroke-linecap="round" stroke-linejoin="round" stroke-miterlimit="10" x1="154.188" y1="140.99" x2="154.188" y2="115.644"/>
<line fill="none" stroke="#000000" stroke-width="2.1628" stroke-linecap="round" stroke-linejoin="round" stroke-miterlimit="10" x1="148.07" y1="140.99" x2="148.07" y2="128.36"/>
<line fill="none" stroke="#000000" stroke-width="2.1628" stroke-linecap="round" stroke-linejoin="round" stroke-miterlimit="10" x1="247.345" y1="146.854" x2="247.345" y2="128.317"/>
<line fill="none" stroke="#000000" stroke-width="2.1628" stroke-linecap="round" stroke-linejoin="round" stroke-miterlimit="10" x1="240.395" y1="145.273" x2="240.395" y2="137.585"/>
<line fill="none" stroke="#000000" stroke-width="2.1628" stroke-linecap="round" stroke-linejoin="round" stroke-miterlimit="10" x1="234.229" y1="145.273" x2="234.229" y2="132.424"/>
<line fill="none" stroke="#000000" stroke-width="2.1628" stroke-linecap="round" stroke-linejoin="round" stroke-miterlimit="10" x1="160.068" y1="140.99" x2="160.068" y2="128.317"/>
<line fill="none" stroke="#000000" stroke-width="2.1628" stroke-linecap="round" stroke-linejoin="round" stroke-miterlimit="10" x1="328.07" y1="144.518" x2="328.07" y2="138.849"/>
<line fill="none" stroke="#000000" stroke-width="2.1628" stroke-linecap="round" stroke-linejoin="round" stroke-miterlimit="10" x1="321.952" y1="144.518" x2="321.952" y2="130.708"/>
<line fill="none" stroke="#000000" stroke-width="2.1628" stroke-linecap="round" stroke-linejoin="round" stroke-miterlimit="10" x1="333.95" y1="144.518" x2="333.95" y2="134.654"/>
</svg>
