<?xml version="1.0" encoding="utf-8"?>
<!-- Generator: Adobe Illustrator 16.0.0, SVG Export Plug-In . SVG Version: 6.00 Build 0)  -->
<!DOCTYPE svg PUBLIC "-//W3C//DTD SVG 1.1//EN" "http://www.w3.org/Graphics/SVG/1.1/DTD/svg11.dtd">
<svg version="1.1" id="圖層_1" xmlns="http://www.w3.org/2000/svg" xmlns:xlink="http://www.w3.org/1999/xlink" x="0px" y="0px"
	 width="1824px" height="256px" viewBox="0 0 1824 256" enable-background="new 0 0 1824 256" xml:space="preserve">
<g>
	<path fill="#333333" d="M404.039,153.84c9.726-3.75,18.193-7.881,25.4-12.393h-51.505l-23.379,0.352
		c-0.879,0-1.317-0.41-1.317-1.23v-5.098c0-0.703,0.438-1.055,1.317-1.055l23.379,0.176h50.978c2.637,0,4.131-0.059,4.481-0.176
		c0.88-0.234,1.465-0.352,1.759-0.352c0.996,0,2.313,0.908,3.955,2.725c2.05,2.168,3.075,3.721,3.075,4.658
		c0,0.996-0.586,1.67-1.758,2.021c-1.055,0.234-3.34,1.378-6.854,3.429c-8.731,4.979-18.281,9.346-28.652,13.096
		c-0.235,0.703-0.352,1.904-0.352,3.604v0.527h49.307l23.643-0.352c0.82,0,1.23,0.41,1.23,1.229v5.625
		c0,0.819-0.411,1.229-1.23,1.229l-23.643-0.352h-49.307v5.801l0.176,15.117c0,4.979-1.494,8.494-4.482,10.547
		c-2.755,1.758-8.38,2.637-16.875,2.637c-2.168,0-4.454-0.03-6.854-0.088c-1.524,0-2.433-0.146-2.726-0.438
		c-0.234-0.234-0.526-0.998-0.879-2.285c-0.646-2.053-1.612-4.074-2.899-6.063c6.093,0.703,12.157,1.055,18.192,1.055
		c3.105,0,5.273-0.559,6.504-1.67c1.171-1.055,1.758-2.842,1.758-5.361v-19.248h-50.01l-23.643,0.352c-0.821,0-1.23-0.41-1.23-1.229
		v-5.625c0-0.819,0.409-1.229,1.23-1.229l23.643,0.352h50.01c0-4.395-0.352-8.467-1.055-12.217
		C399.585,152.727,402.457,153.371,404.039,153.84z M344.625,74.475h14.941l10.811-0.352c0.82,0,1.23,0.439,1.23,1.318V80.1
		c0,0.703-0.411,1.055-1.23,1.055l-10.811-0.352H344.8l0.791,13.887h14.326l10.459-0.352c0.82,0,1.23,0.411,1.23,1.23v4.658
		c0,0.703-0.411,1.055-1.23,1.055l-10.459-0.352h-13.975l0.702,15.118H454.4l1.055-14.942h-14.15l-10.635,0.352
		c-0.879,0-1.318-0.352-1.318-1.055v-4.658c0-0.82,0.439-1.23,1.318-1.23l10.635,0.352h14.502l0.968-14.238H441.48l-10.636,0.352
		c-0.82,0-1.229-0.409-1.229-1.23v-4.57c0-0.82,0.409-1.23,1.229-1.23l10.636,0.352H457.3l0.879-14.238h-16.172L429.176,60.5
		c-0.82,0-1.229-0.439-1.229-1.318v-5.01c0-0.82,0.409-1.23,1.229-1.23l12.832,0.352h9.844l13.009-0.352
		c0.937,0,1.405,0.47,1.405,1.406c-0.82,5.977-1.405,12.744-1.758,20.303l-2.549,41.221l10.811-0.176
		c0.938,0,1.406,0.352,1.406,1.055l-0.352,5.977v4.307l0.352,14.238c0,0.819-0.47,1.229-1.406,1.229h-5.801
		c-0.82,0-1.229-0.41-1.229-1.229v-18.37H335.133v18.37c0,0.819-0.411,1.229-1.229,1.229h-5.978c-0.82,0-1.229-0.41-1.229-1.229
		l0.352-14.238v-3.779l-0.352-6.504c0-0.703,0.409-1.055,1.229-1.055c0.117,0,0.615,0.029,1.494,0.088
		c2.988,0.117,6.21,0.205,9.668,0.264l-1.934-42.627c-0.411-9.022-1.085-15.205-2.021-18.545c2.988,0.527,5.801,1.494,8.438,2.9
		c5.565-1.875,10.664-3.808,15.293-5.801c3.104-1.464,5.507-2.958,7.207-4.482c2.693,1.758,4.862,3.428,6.504,5.01
		c0.585,0.646,0.879,1.261,0.879,1.846c0,0.938-0.615,1.406-1.846,1.406c-1.935,0-4.132,0.499-6.593,1.494
		c-6.854,2.637-13.829,4.893-20.918,6.768L344.625,74.475z M402.633,59.885c2.87-2.343,4.6-3.779,5.187-4.307
		c2.637-2.461,4.628-4.863,5.977-7.207c2.05,1.114,3.896,2.315,5.537,3.604c0.82,0.646,1.229,1.202,1.229,1.67
		c0,0.762-0.41,1.23-1.229,1.406c-1.173,0.411-2.315,1.085-3.428,2.021c-1.173,0.997-3.75,3.076-7.734,6.24
		c4.922,3.106,9.053,5.889,12.394,8.35c0.468,0.352,0.702,0.646,0.702,0.879c0,0.294-0.294,0.703-0.879,1.23l-1.582,1.846
		c-0.879,1.055-1.465,1.582-1.758,1.582c-0.235,0-0.558-0.176-0.967-0.527c-4.57-3.573-9.053-6.768-13.447-9.58
		c-5.919,4.102-12.364,7.677-19.336,10.723c-1.055,0.411-1.758,0.615-2.108,0.615c-0.527,0-1.318-0.644-2.373-1.934
		c-0.997-1.23-2.197-2.138-3.604-2.725c7.91-2.578,15.175-5.946,21.797-10.107c-5.743-3.164-10.665-5.742-14.766-7.734
		c-0.527-0.233-0.791-0.497-0.791-0.791c0-0.292,0.321-0.791,0.967-1.494l1.846-1.846c0.585-0.585,1.056-0.879,1.406-0.879
		c0.176,0,0.409,0.059,0.703,0.176C393.521,54.787,398.941,57.718,402.633,59.885z M402.633,93.547
		c2.813-2.285,4.6-3.779,5.361-4.482c2.519-2.343,4.511-4.746,5.977-7.207c1.641,0.938,3.429,2.14,5.361,3.604
		c0.82,0.586,1.229,1.143,1.229,1.67c0,0.879-0.47,1.406-1.405,1.582c-1.056,0.176-2.197,0.791-3.429,1.846
		c-4.922,4.219-7.441,6.358-7.559,6.416c4.922,3.106,9.053,5.86,12.393,8.262c0.469,0.41,0.703,0.703,0.703,0.879
		c0,0.234-0.234,0.615-0.703,1.143l-1.758,2.021c-0.938,1.113-1.553,1.67-1.846,1.67c-0.235,0-0.527-0.146-0.879-0.439
		c-4.278-3.574-8.701-6.768-13.271-9.581c-5.742,4.043-12.247,7.53-19.512,10.459c-1.055,0.41-1.729,0.615-2.021,0.615
		c-0.471,0-1.23-0.557-2.285-1.67c-1.114-1.289-2.315-2.256-3.604-2.9c7.324-2.402,14.531-5.713,21.621-9.932
		c-2.403-1.464-7.266-4.101-14.59-7.91c-0.527-0.233-0.791-0.468-0.791-0.703c0-0.233,0.264-0.644,0.791-1.23l1.494-1.67
		c0.82-0.938,1.435-1.406,1.846-1.406c0.176,0,0.38,0.059,0.615,0.176C392.701,88.04,398.12,90.969,402.633,93.547z"/>
	<path fill="#333333" d="M498.697,99.699c-0.471-0.292-0.703-0.556-0.703-0.791c0-0.233,0.352-0.761,1.055-1.582l2.197-2.637
		c0.585-0.82,1.112-1.23,1.582-1.23c0.232,0,0.527,0.118,0.879,0.352c9.374,5.449,17.898,11.924,25.576,19.424
		c0.292,0.293,0.438,0.557,0.438,0.791s-0.264,0.674-0.791,1.318l-2.899,3.604c-0.703,0.938-1.318,1.406-1.847,1.406
		c-0.294,0-0.558-0.176-0.791-0.527C516.421,112.327,508.189,105.618,498.697,99.699z M501.246,198.84
		c2.578-3.283,5.272-7.646,8.086-13.096c6.855-14.121,12.246-28.477,16.172-43.066c1.171,1.465,2.666,2.813,4.482,4.043
		c1.347,0.762,2.021,1.465,2.021,2.109c0,0.352-0.176,1.143-0.526,2.373c-3.691,12.305-9.229,26.631-16.611,42.979
		c-1.993,4.451-3.076,7.264-3.252,8.438c-0.118,1.348-0.586,2.021-1.406,2.021c-0.527,0-1.29-0.295-2.285-0.879
		C506.168,202.648,503.94,201.006,501.246,198.84z M514.693,49.514c8.026,5.157,15.79,11.749,23.291,19.775
		c0.352,0.352,0.526,0.674,0.526,0.967c0,0.294-0.382,0.879-1.143,1.758l-2.461,2.988c-0.763,0.997-1.35,1.494-1.758,1.494
		c-0.294,0-0.615-0.176-0.968-0.527c-7.324-8.438-15-15.351-23.026-20.742c-0.471-0.292-0.703-0.527-0.703-0.703
		c0-0.292,0.468-0.908,1.406-1.846l2.196-2.285c0.762-0.879,1.348-1.318,1.758-1.318C514.048,49.074,514.342,49.221,514.693,49.514z
		 M555.563,179.24c-1.699,5.918-2.843,9.814-3.428,11.689c-0.176,0.819-0.674,1.229-1.494,1.229c-0.47,0-1.641-0.117-3.516-0.353
		c-2.813-0.469-4.219-0.938-4.219-1.406c0-0.176,0.088-0.469,0.264-0.879c2.167-4.979,3.72-9.258,4.658-12.832
		c3.396-13.477,6.034-26.19,7.91-38.145c-5.273,0.059-9.933,0.146-13.976,0.264c-2.755,0.06-4.161,0.088-4.219,0.088
		c-0.821,0-1.229-0.41-1.229-1.229v-5.449c0-0.702,0.408-1.055,1.229-1.055l19.512,0.353c0.82-5.508,1.815-13.77,2.988-24.786
		c0.527-5.507,0.791-9.785,0.791-12.833c0-0.937,0.468-1.406,1.406-1.406l22.676,0.352h34.365l22.764-0.352
		c0.938,0,1.406,0.47,1.406,1.406c-0.47,6.152-0.762,10.782-0.879,13.887c-0.294,5.625-0.791,13.535-1.494,23.729l19.951-0.352
		c0.879,0,1.317,0.352,1.317,1.055v5.449c0,0.82-0.438,1.23-1.317,1.23l-20.304-0.353c-0.996,12.422-2.14,23.584-3.428,33.485
		c5.099-0.059,9.58-0.146,13.447-0.264c0.176,0,1.143-0.029,2.9-0.088c0.526,0,0.849,0,0.967,0c0.819,0,1.229,0.41,1.229,1.23v5.449
		c0,0.819-0.411,1.229-1.229,1.229c-0.118,0-0.851-0.028-2.197-0.088c-4.513-0.117-9.844-0.205-15.996-0.265
		c-0.059,0.703-0.206,1.729-0.438,3.076c-0.118,1.113-0.206,1.963-0.265,2.549c-1.173,7.324-3.428,12.511-6.768,15.558
		c-3.34,3.045-8.233,4.569-14.678,4.569c-4.103,0-7.031-0.059-8.789-0.176c-1.174-0.119-1.905-0.322-2.197-0.615
		c-0.294-0.352-0.586-1.229-0.879-2.637c-0.527-1.934-1.494-3.779-2.9-5.537c4.452,0.584,9.434,0.879,14.941,0.879
		c4.395,0,7.559-1.174,9.492-3.516c1.698-2.051,2.957-5.684,3.778-10.898l0.615-3.252h-72.771V179.24z M567.252,66.74h65.391
		l24.435-0.352c0.879,0,1.317,0.411,1.317,1.23v5.625c0,0.821-0.438,1.23-1.317,1.23l-24.435-0.352h-68.993
		c-4.864,9.083-11.046,17.784-18.546,26.104c-0.82,0.938-1.405,1.406-1.758,1.406c-0.411,0-1.143-0.527-2.196-1.582
		c-1.056-0.937-2.55-1.846-4.482-2.725c13.652-13.241,23.027-28.828,28.125-46.758c0.585-2.05,0.996-4.452,1.229-7.207
		c3.926,0.879,6.769,1.582,8.525,2.109c1.171,0.411,1.758,1.026,1.758,1.846c0,0.703-0.352,1.406-1.055,2.109
		c-1.29,1.29-2.256,2.931-2.9,4.922C570.474,59.329,568.775,63.459,567.252,66.74z M588.521,172.033
		c2.401-14.883,4.013-26.045,4.834-33.486h-29.531c-2.696,15.293-4.894,26.455-6.592,33.486H588.521L588.521,172.033z
		 M594.322,131.516c0.996-8.67,1.814-19.218,2.461-31.641H568.57c-0.821,9.375-2.021,19.922-3.604,31.641H594.322z M601.266,138.547
		c-1.582,12.363-3.252,23.525-5.01,33.486h32.959c1.288-9.902,2.432-21.064,3.428-33.486H601.266z M602.057,131.516h31.113
		c0.703-10.429,1.23-20.976,1.582-31.641h-30.059C604.166,110.598,603.287,121.145,602.057,131.516z"/>
	<path fill="#333333" d="M810.182,76.32v31.817h3.955l23.556-0.352c0.879,0,1.317,0.41,1.317,1.23v5.625
		c0,0.82-0.438,1.23-1.317,1.23l-23.556-0.352h-3.955v32.958l20.918-0.353c0.82,0,1.23,0.41,1.23,1.229v5.449
		c0,0.82-0.41,1.23-1.23,1.23l-24.873-0.352h-91.143l-24.785,0.352c-0.879,0-1.317-0.41-1.317-1.23v-5.449
		c0-0.819,0.438-1.229,1.317-1.229l20.303,0.353V115.52h-5.186l-23.643,0.352c-0.821,0-1.23-0.41-1.23-1.23v-5.625
		c0-0.82,0.409-1.23,1.23-1.23l23.643,0.352h5.186V78.693c-5.216,6.739-10.488,12.599-15.819,17.578
		c-1.114,0.997-1.847,1.494-2.197,1.494s-1.055-0.615-2.109-1.846c-1.173-1.347-2.549-2.373-4.131-3.076
		c13.77-11.367,24.667-24.667,32.695-39.902c1.991-3.808,3.428-7.528,4.307-11.162c2.578,0.762,5.243,1.846,7.998,3.252
		c0.938,0.47,1.406,0.997,1.406,1.582c0,0.703-0.558,1.437-1.67,2.197c-1.055,0.762-2.491,2.667-4.307,5.713
		c-3.106,5.392-6.096,10.195-8.966,14.414h86.748l25.752-0.352c0.879,0,1.318,0.411,1.318,1.23v5.625c0,0.821-0.439,1.23-1.318,1.23
		L810.182,76.32z M706.998,165.969c0.176-0.469,0.439-0.703,0.791-0.703c0.409,0,1.229,0.293,2.461,0.879l2.549,1.23
		c1.171,0.645,1.758,1.172,1.758,1.582c0,0.176-0.059,0.381-0.176,0.615c-5.859,11.543-13.711,21.973-23.555,31.289
		c-0.47,0.469-0.879,0.703-1.23,0.703c-0.351,0-1.025-0.41-2.021-1.23l-2.373-1.846c-1.055-0.938-1.582-1.613-1.582-2.021
		c0-0.295,0.233-0.615,0.703-0.967C694.399,186.477,701.958,176.633,706.998,165.969z M741.188,76.32H718.16v31.817h23.026
		L741.188,76.32L741.188,76.32z M741.188,115.52H718.16v32.958h23.026L741.188,115.52L741.188,115.52z M738.111,167.023
		c0.761-0.117,1.229-0.176,1.405-0.176c0.527,0,0.908,0.381,1.144,1.143c2.637,7.09,4.716,16.904,6.24,29.443
		c0.058,0.231,0.088,0.407,0.088,0.526c0,0.584-0.674,1.022-2.021,1.317l-3.604,0.527c-0.763,0.117-1.318,0.176-1.67,0.176
		c-0.763,0-1.144-0.41-1.144-1.229c-0.703-10.547-2.579-20.272-5.625-29.181c-0.059-0.293-0.088-0.526-0.088-0.702
		c0-0.47,0.82-0.908,2.461-1.318L738.111,167.023z M771.773,76.32H748.57v31.817h23.203V76.32z M771.773,115.52H748.57v32.958
		h23.203V115.52z M773.795,166.672c0.761-0.234,1.288-0.352,1.582-0.352c0.469,0,0.849,0.293,1.143,0.879
		c4.452,8.848,7.969,18.633,10.548,29.355c0.116,0.352,0.176,0.614,0.176,0.79c0,0.294-0.586,0.615-1.758,0.968l-3.429,1.143
		c-1.229,0.408-2.021,0.615-2.373,0.615c-0.47,0-0.82-0.383-1.055-1.144c-2.228-10.957-5.449-20.741-9.668-29.354
		c-0.176-0.353-0.264-0.615-0.264-0.791c0-0.352,0.731-0.762,2.197-1.23L773.795,166.672z M802.623,76.32h-23.467v31.817h23.467
		V76.32z M802.623,115.52h-23.467v32.958h23.467V115.52z M811.588,164.826c8.555,9.023,15.762,19.248,21.621,30.674
		c0.176,0.352,0.264,0.645,0.264,0.879c0,0.408-0.646,0.936-1.934,1.582l-2.637,1.494c-1.289,0.703-2.109,1.055-2.461,1.055
		c-0.295,0-0.615-0.322-0.968-0.967c-5.332-11.133-12.247-21.621-20.741-31.465c-0.234-0.293-0.353-0.527-0.353-0.703
		s0.615-0.586,1.846-1.23l2.461-1.317c0.938-0.41,1.523-0.615,1.759-0.615C810.738,164.211,811.118,164.416,811.588,164.826z"/>
	<path fill="#333333" d="M865.729,93.898c7.56,4.395,15.234,10.283,23.027,17.667c0.293,0.293,0.439,0.557,0.439,0.791
		c0,0.293-0.383,0.938-1.144,1.934l-2.373,3.076c-0.703,0.938-1.289,1.406-1.758,1.406c-0.294,0-0.615-0.176-0.967-0.527
		c-7.56-7.734-14.854-13.74-21.885-18.018c-0.586-0.292-0.879-0.585-0.879-0.879c0-0.352,0.408-1.024,1.229-2.021l2.109-2.637
		c0.585-0.703,1.055-1.055,1.405-1.055C865.113,93.635,865.377,93.723,865.729,93.898z M862.477,196.555
		c3.457-4.453,6.211-9.022,8.263-13.711c5.683-12.656,10.313-25.781,13.887-39.375c1.23,1.641,2.666,2.959,4.307,3.955
		c1.523,0.879,2.285,1.641,2.285,2.285c0,0.293-0.146,1.025-0.438,2.197c-3.574,12.129-8.496,25.43-14.767,39.902
		c-2.228,5.098-3.37,7.938-3.428,8.524c-0.234,1.287-0.733,1.935-1.494,1.935c-0.526,0-1.289-0.295-2.285-0.879
		C867.28,200.451,865.171,198.84,862.477,196.555z M875.045,49.689c7.265,4.981,14.296,11.162,21.094,18.545
		c0.353,0.294,0.527,0.558,0.527,0.791c0,0.352-0.352,0.967-1.055,1.846l-2.373,2.725c-0.821,1.055-1.438,1.582-1.847,1.582
		c-0.294,0-0.646-0.233-1.055-0.703c-5.859-6.972-12.891-13.388-21.094-19.248c-0.353-0.292-0.527-0.527-0.527-0.703
		c0-0.233,0.439-0.761,1.318-1.582l2.373-2.373c0.819-0.82,1.405-1.23,1.758-1.23C874.399,49.338,874.693,49.456,875.045,49.689z
		 M919.518,62.785v27.158c0,21.68-1.024,40.518-3.075,56.514c-2.521,19.629-8.645,37.324-18.369,53.086
		c-0.646,1.23-1.113,1.846-1.406,1.846c-0.294,0-0.967-0.471-2.021-1.406c-1.7-1.582-3.604-2.725-5.714-3.428
		c10.956-15.469,17.548-33.164,19.775-53.086c1.815-16.406,2.725-34.248,2.725-53.525L911.08,55.93c0-0.82,0.352-1.23,1.055-1.23
		l25.4,0.352H991.5l25.225-0.352c0.82,0,1.23,0.411,1.23,1.23v5.977c0,0.821-0.41,1.23-1.23,1.23L991.5,62.785H919.518z
		 M962.76,190.754V164.65h-13.008l-22.5,0.352c-0.821,0-1.229-0.41-1.229-1.23v-5.448c0-0.82,0.408-1.23,1.229-1.23l22.5,0.353
		h13.008v-6.68c0-5.449-0.352-10.431-1.055-14.941c2.637,0.176,5.507,0.498,8.613,0.967c1.288,0.176,1.934,0.645,1.934,1.406
		c0,0.117-0.234,1.025-0.703,2.725c-0.703,1.934-1.055,5.391-1.055,10.371v6.152h13.359l22.323-0.353c0.82,0,1.23,0.41,1.23,1.23
		v5.448c0,0.82-0.41,1.23-1.23,1.23l-22.323-0.352h-13.359v26.104h22.324l25.225-0.352c0.82,0,1.23,0.469,1.23,1.406v5.272
		c0,0.819-0.41,1.229-1.23,1.229l-25.225-0.352h-53.086l-25.226,0.352c-0.703,0-1.055-0.41-1.055-1.229v-5.272
		c0-0.938,0.352-1.406,1.055-1.406l25.226,0.352H962.76L962.76,190.754z M962.76,122.024V98.82h-9.58l-21.885,0.352
		c-0.879,0-1.318-0.409-1.318-1.23v-5.449c0-0.82,0.439-1.23,1.318-1.23l21.885,0.352h9.58v-4.658
		c0-7.089-0.352-12.861-1.055-17.314c2.988,0.118,5.857,0.411,8.613,0.879c1.288,0.176,1.934,0.674,1.934,1.494
		c0,0.235-0.234,1.173-0.703,2.813c-0.703,1.993-1.055,6.036-1.055,12.129v4.658h13.887l21.797-0.352
		c0.938,0,1.406,0.411,1.406,1.23v5.449c0,0.821-0.47,1.23-1.406,1.23l-21.797-0.352h-13.887v23.204h20.742l24.082-0.352
		c0.819,0,1.229,0.41,1.229,1.23v5.449c0,0.82-0.41,1.23-1.229,1.23l-24.082-0.352h-42.716l-23.905,0.352
		c-0.879,0-1.318-0.41-1.318-1.23v-5.449c0-0.82,0.439-1.23,1.318-1.23l23.905,0.352L962.76,122.024L962.76,122.024z"/>
	<path fill="#333333" d="M1049.947,167.375c3.925,0,7.089,1.641,9.492,4.922c2.051,2.871,3.075,6.387,3.075,10.547
		c0,7.5-1.553,13.74-4.657,18.721c-2.579,4.22-6.65,8.263-12.218,12.129c-0.526,0.353-0.967,0.527-1.317,0.527
		c-0.352,0-0.703-0.234-1.056-0.703l-2.196-2.549c-0.234-0.471-0.353-0.822-0.353-1.055c0-0.119,0.353-0.439,1.056-0.967
		c7.323-5.625,10.985-11.193,10.985-16.699c0-3.105-1.317-4.658-3.955-4.658c-2.637,0-4.893-1.025-6.768-3.076
		c-1.7-1.875-2.549-4.102-2.549-6.68c0-3.281,1.172-5.918,3.516-7.91C1044.938,168.225,1047.252,167.375,1049.947,167.375z"/>
	<path fill="#333333" d="M1271.08,194.182h-122.607v10.812c0,0.819-0.41,1.229-1.229,1.229h-6.328c-0.821,0-1.23-0.41-1.23-1.229
		l0.353-66.271V102.6l-0.353-47.549c0-0.82,0.409-1.23,1.23-1.23l25.399,0.352h86.925l25.399-0.352c0.82,0,1.23,0.411,1.23,1.23
		l-0.353,42.451v41.221l0.353,66.271c0,0.819-0.41,1.229-1.23,1.229h-6.328c-0.82,0-1.229-0.41-1.229-1.229L1271.08,194.182
		L1271.08,194.182z M1148.473,186.623h122.607V61.906h-122.607V186.623z M1186.09,152.434v6.855c0,0.82-0.41,1.23-1.229,1.23h-5.802
		c-0.82,0-1.229-0.41-1.229-1.23l0.352-29.531v-16.259l-0.352-19.073c0-0.82,0.409-1.23,1.229-1.23l19.336,0.352h21.357
		l19.336-0.352c0.82,0,1.23,0.411,1.23,1.23l-0.353,17.491v17.841l0.353,29.531c0,0.82-0.41,1.23-1.23,1.23h-5.801
		c-0.821,0-1.23-0.41-1.23-1.23v-6.855H1186.09z M1186.09,145.227h45.967v-44.473h-45.967V145.227z"/>
	<path fill="#333333" d="M1349.039,175.285c3.164-6.152,6.445-13.945,9.844-23.379c1.523-4.16,2.373-7.881,2.549-11.162
		c2.578,0.645,5.215,1.553,7.91,2.725c1.23,0.586,1.846,1.172,1.846,1.758s-0.47,1.26-1.405,2.021
		c-0.938,0.762-2.403,3.516-4.396,8.262c-1.934,4.629-4.688,10.459-8.262,17.49c9.198-2.871,17.284-5.947,24.258-9.229
		c-0.47,1.875-0.703,3.604-0.703,5.186c0.059,0.762,0.088,1.289,0.088,1.582c0,1.055-0.908,1.934-2.725,2.637
		c-16.114,6.504-34.6,12.188-55.459,17.051c-3.926,0.996-6.211,1.847-6.855,2.549c-0.82,0.82-1.553,1.23-2.196,1.23
		c-0.586,0-1.173-0.586-1.759-1.758c-1.055-2.227-2.079-4.863-3.075-7.91c4.922-0.41,10.313-1.318,16.172-2.725
		C1333.072,179.797,1341.129,177.688,1349.039,175.285z M1311.949,60.676v-5.801c0-0.82,0.409-1.23,1.229-1.23l20.039,0.352h24.435
		l19.95-0.352c0.88,0,1.318,0.411,1.318,1.23v5.801c0,0.821-0.438,1.23-1.318,1.23l-19.95-0.352h-24.435l-20.039,0.352
		C1312.358,61.906,1311.949,61.497,1311.949,60.676z M1354.4,130.109h-16.523l-17.139,0.352c-0.821,0-1.23-0.41-1.23-1.23
		l0.353-15.116V97.326l-0.353-15.117c0-0.82,0.409-1.23,1.23-1.23l17.139,0.352h16.523l17.139-0.352c0.82,0,1.23,0.411,1.23,1.23
		l-0.353,15.117v16.788l0.353,15.116c0,0.82-0.41,1.23-1.23,1.23L1354.4,130.109z M1322.936,145.402
		c-0.176-0.293-0.264-0.527-0.264-0.703c0-0.352,0.673-0.82,2.021-1.406l2.549-0.967c0.703-0.293,1.199-0.439,1.494-0.439
		c0.232,0,0.526,0.264,0.879,0.791c3.749,6.328,6.854,13.975,9.315,22.939c0.117,0.352,0.177,0.615,0.177,0.791
		c0,0.469-0.703,0.967-2.109,1.494l-2.549,0.879c-1.113,0.527-1.846,0.791-2.197,0.791c-0.351,0-0.586-0.322-0.703-0.967
		C1329.615,160.461,1326.744,152.727,1322.936,145.402z M1327.594,123.079h37.09V88.361h-37.09V123.079z M1404.234,176.34
		c2.637,1.582,4.688,3.047,6.151,4.395c0.82,0.82,1.23,1.466,1.23,1.935c0,0.586-0.527,1.084-1.582,1.494
		c-0.938,0.233-2.256,0.996-3.955,2.285c-9.786,8.379-20.479,14.94-32.08,19.688c-1.173,0.526-1.934,0.79-2.285,0.79
		c-0.41,0-1.143-0.821-2.197-2.461c-0.82-1.405-1.964-2.606-3.428-3.604c12.422-4.161,23.584-10.399,33.486-18.721
		C1401.392,180.5,1402.945,178.566,1404.234,176.34z M1421.021,80.451h15.469l20.391-0.352c0.82,0,1.23,0.411,1.23,1.23
		l-0.353,21.445v45.527l0.353,21.27c0,0.938-0.41,1.406-1.23,1.406l-20.391-0.352h-24.435l-20.391,0.352
		c-0.821,0-1.229-0.469-1.229-1.406l0.352-21.27v-45.352l-0.352-21.621c0-0.82,0.408-1.23,1.229-1.23l20.391,0.352h0.88
		c2.284-4.804,4.628-11.162,7.03-19.072h-10.811l-23.027,0.352c-0.879,0-1.317-0.409-1.317-1.23v-5.801
		c0-0.82,0.438-1.23,1.317-1.23l23.027,0.352h36.387l23.203-0.352c0.703,0,1.055,0.411,1.055,1.23V60.5
		c0,0.821-0.352,1.23-1.055,1.23l-23.203-0.352h-17.139c-0.587,2.168-1.729,5.304-3.429,9.404
		C1424.273,72.893,1422.955,76.116,1421.021,80.451z M1398.521,107.61h51.504V87.658h-51.504V107.61z M1398.521,114.465v20.479
		h51.504v-20.479H1398.521z M1398.521,141.623v21.797h51.504v-21.797H1398.521z M1473.404,197.609
		c-1.35,0.996-2.549,2.43-3.604,4.307c-0.762,1.463-1.437,2.197-2.021,2.197c-0.353,0-1.113-0.295-2.285-0.879
		c-10.43-4.922-20.772-12.188-31.025-21.797c-0.294-0.293-0.438-0.558-0.438-0.791c0-0.234,0.585-0.82,1.758-1.758l1.934-1.582
		c0.938-0.82,1.553-1.23,1.847-1.23c0.176,0,0.469,0.146,0.879,0.439C1451.461,186.828,1462.447,193.859,1473.404,197.609z"/>
	<path fill="#333333" d="M1573.863,154.807h33.135l19.072-0.352c0.819,0,1.229,0.41,1.229,1.23v5.801c0,0.82-0.41,1.229-1.229,1.229
		l-19.072-0.353h-33.135v28.214c7.615,1.582,17.344,2.373,29.18,2.373c17.168,0,32.753-0.968,46.758-2.9
		c-1.349,1.642-2.314,3.634-2.899,5.978c-0.294,1.582-0.586,2.49-0.879,2.725c-0.294,0.232-1.144,0.408-2.55,0.527
		c-10.897,1.055-23.849,1.582-38.848,1.582c-16.466,0-29.474-1.318-39.022-3.955c-8.438-2.404-15.938-6.24-22.5-11.514
		c-7.149-5.802-12.423-11.25-15.82-16.349c-6.211,12.715-15.029,23.496-26.455,32.345c-0.997,0.819-1.67,1.229-2.021,1.229
		c-0.352,0-1.085-0.586-2.197-1.759c-1.641-1.641-3.312-2.725-5.01-3.252c16.933-11.366,28.271-26.776,34.014-46.229
		c1.112-2.987,1.67-6.123,1.67-9.403c3.223,0.762,6.034,1.61,8.438,2.549c1.229,0.469,1.846,1.084,1.846,1.846
		c0,0.469-0.558,1.23-1.67,2.285c-0.527,0.527-1.377,2.402-2.549,5.625l-2.638,7.383c3.573,5.977,8.848,11.66,15.82,17.051
		c5.625,4.336,11.982,7.646,19.072,9.932v-57.656h-49.658l-23.643,0.353c-0.821,0-1.23-0.409-1.23-1.229v-5.625
		c0-0.82,0.409-1.23,1.23-1.23l23.643,0.352h107.051l23.73-0.352c0.879,0,1.317,0.41,1.317,1.23v5.625
		c0,0.82-0.438,1.229-1.317,1.229l-23.73-0.353h-49.131v23.818H1573.863z M1544.332,53.82h49.834l24.961-0.352
		c0.879,0,1.318,0.411,1.318,1.23l-0.353,16.172v20.918l0.353,16.26c0,0.938-0.439,1.406-1.318,1.406l-24.961-0.352h-49.834
		l-25.049,0.352c-0.821,0-1.23-0.469-1.23-1.406l0.353-16.26V70.871l-0.353-16.172c0-0.82,0.409-1.23,1.23-1.23L1544.332,53.82z
		 M1526.314,77.551h85.868V61.027h-85.868V77.551z M1526.314,84.582v17.49h85.868v-17.49H1526.314z"/>
	<path fill="#333333" d="M1694.889,107.61v11.865c0,14.765-0.791,27.128-2.373,37.089c-2.168,15.233-8.115,30.381-17.842,45.438
		c-0.762,1.11-1.289,1.67-1.582,1.67c-0.294,0-0.967-0.526-2.021-1.582c-1.759-1.758-3.486-2.899-5.187-3.428
		c5.858-7.853,10.253-15.527,13.184-23.027c2.52-6.444,4.364-13.827,5.537-22.147c1.349-8.262,2.021-19.951,2.021-35.068
		l-0.439-17.491c0-0.82,0.409-1.23,1.23-1.23l25.84,0.352h80.596l25.4-0.352c0.82,0,1.229,0.411,1.229,1.23v5.801
		c0,0.82-0.409,1.23-1.229,1.23l-25.4-0.352h-98.965V107.61z M1744.547,76.145V63.752c0-9.257-0.352-15.673-1.055-19.248
		c2.754,0.118,5.857,0.411,9.315,0.879c1.23,0.176,1.847,0.646,1.847,1.406c0,0.762-0.294,1.846-0.879,3.252
		c-0.763,1.817-1.144,6.387-1.144,13.711v12.393h49.658v-8.789c0-5.155-0.353-9.198-1.056-12.129
		c3.573,0.235,6.709,0.558,9.404,0.967c1.172,0.235,1.758,0.762,1.758,1.582c0,0.586-0.293,1.377-0.879,2.373
		c-0.586,1.173-0.879,3.634-0.879,7.383v3.604l0.353,11.162c0,0.821-0.41,1.23-1.23,1.23l-26.016-0.352h-67.676l-25.929,0.352
		c-0.82,0-1.229-0.409-1.229-1.23l0.352-10.986V68.06c0-4.922-0.294-8.994-0.879-12.217c4.396,0.411,7.384,0.762,8.965,1.055
		c1.349,0.294,2.021,0.762,2.021,1.406c0,0.47-0.353,1.553-1.056,3.252c-0.526,0.938-0.791,3.047-0.791,6.328v8.262L1744.547,76.145
		L1744.547,76.145z M1753.775,158.234v-24.17h-17.666l-24.435,0.352c-0.879,0-1.317-0.41-1.317-1.23v-5.625
		c0-0.82,0.438-1.23,1.317-1.23l24.435,0.352h48.428l24.697-0.352c0.819,0,1.229,0.41,1.229,1.23v5.625c0,0.82-0.41,1.23-1.229,1.23
		l-24.697-0.352h-22.5v24.17h34.893l25.752-0.353c0.879,0,1.318,0.41,1.318,1.229v5.802c0,0.819-0.439,1.229-1.318,1.229
		l-25.752-0.352h-34.893v14.59l0.352,24.873c0,0.703-0.41,1.055-1.229,1.055h-6.504c-0.821,0-1.23-0.352-1.23-1.055l0.353-24.873
		v-14.59h-25.928l-25.752,0.352c-0.821,0-1.23-0.41-1.23-1.229v-5.802c0-0.819,0.409-1.229,1.23-1.229l25.752,0.353H1753.775z"/>
</g>
<polygon fill="#53C2C8" points="213.057,40.572 158.549,145.128 142.798,116.984 182.04,40.572 139.829,40.572 69.757,174.983 
	92.247,215.429 127.885,146.027 142.985,174.983 165.475,215.429 255.267,40.572 "/>
<polygon fill="#FFD04D" points="0,40.572 111.131,40.572 55.565,144.53 "/>
</svg>
